<?xml version="1.0" standalone="no"?><!DOCTYPE svg PUBLIC "-//W3C//DTD SVG 1.1//EN" "http://www.w3.org/Graphics/SVG/1.1/DTD/svg11.dtd"><svg height="720" node-id="1" sillyvg="true" template-height="720" template-width="1040" version="1.1" viewBox="0 0 1040 720" width="1040" xmlns="http://www.w3.org/2000/svg" xmlns:xlink="http://www.w3.org/1999/xlink"><defs node-id="296"><linearGradient gradientUnits="userSpaceOnUse" id="SVGID_3_" node-id="10" spreadMethod="pad" x1="527.8425" x2="527.8425" y1="26.9636" y2="709.41"><stop offset="0" stop-color="#160050"></stop><stop offset="1" stop-color="#110a35"></stop></linearGradient><radialGradient cx="1618.3236" cy="4497.0083" fx="1618.3236" fy="4497.0083" gradientTransform="matrix(0.8971 -0.3044 0.2123 0.6257 -1486.5374 -2032.1112)" gradientUnits="userSpaceOnUse" id="SVGID_4_" node-id="23" r="41.4474" rev="28" spreadMethod="pad"><stop offset="0.6656" stop-color="#f198bf"></stop><stop offset="0.999" stop-color="#ffdc80"></stop></radialGradient><radialGradient cx="-6099.751" cy="-5144.8867" fx="-6099.751" fy="-5144.8867" gradientTransform="matrix(-0.8971 0.3044 -0.2123 -0.6257 -5655.1304 -1078.6205)" gradientUnits="userSpaceOnUse" id="SVGID_5_" node-id="28" r="41.4474" rev="27" spreadMethod="pad"><stop offset="0.6656" stop-color="#f198bf"></stop><stop offset="0.999" stop-color="#ffdc80"></stop></radialGradient><radialGradient cx="1399.1982" cy="4490.5747" fx="1399.1982" fy="4490.5747" gradientTransform="matrix(0.947 -0.3213 0.2123 0.6257 -1363.6179 -2073.8208)" gradientUnits="userSpaceOnUse" id="SVGID_6_" node-id="32" r="14.6629" rev="26" spreadMethod="pad"><stop offset="0.6656" stop-color="#fffff4"></stop><stop offset="0.999" stop-color="#fffff4" stop-opacity="0"></stop></radialGradient><radialGradient cx="289.3429" cy="659.663" fx="289.3429" fy="659.663" gradientUnits="userSpaceOnUse" id="SVGID_7_" node-id="37" r="15.3862" rev="25" spreadMethod="pad"><stop offset="0" stop-color="#ffffff"></stop><stop offset="1" stop-color="#ffffff" stop-opacity="0"></stop></radialGradient><radialGradient cx="929.8337" cy="426.9207" fx="929.8337" fy="426.9207" gradientUnits="userSpaceOnUse" id="SVGID_8_" node-id="41" r="19.209" rev="24" spreadMethod="pad"><stop offset="0" stop-color="#ffffff"></stop><stop offset="1" stop-color="#ffffff" stop-opacity="0"></stop></radialGradient><radialGradient cx="221.2184" cy="229.3395" fx="221.2184" fy="229.3395" gradientUnits="userSpaceOnUse" id="SVGID_9_" node-id="45" r="19.209" rev="23" spreadMethod="pad"><stop offset="0" stop-color="#ffffff"></stop><stop offset="1" stop-color="#ffffff" stop-opacity="0"></stop></radialGradient><radialGradient cx="872.4972" cy="360.9937" fx="872.4972" fy="360.9937" gradientUnits="userSpaceOnUse" id="SVGID_10_" node-id="49" r="10.7711" rev="22" spreadMethod="pad"><stop offset="0" stop-color="#ffffff"></stop><stop offset="1" stop-color="#ffffff" stop-opacity="0"></stop></radialGradient><radialGradient cx="88.5653" cy="459.0851" fx="88.5653" fy="459.0851" gradientUnits="userSpaceOnUse" id="SVGID_11_" node-id="53" r="6.3829" rev="21" spreadMethod="pad"><stop offset="0" stop-color="#ffffff"></stop><stop offset="1" stop-color="#ffffff" stop-opacity="0"></stop></radialGradient><linearGradient gradientUnits="userSpaceOnUse" id="SVGID_12_" node-id="111" spreadMethod="pad" x1="665.7262" x2="676.9138" y1="256.5094" y2="256.5094"><stop offset="0" stop-color="#00d4ef"></stop><stop offset="1" stop-color="#00f0f3"></stop></linearGradient><linearGradient gradientTransform="matrix(0.7071 0.7071 -0.7071 0.7071 -2506.5273 3066.292)" gradientUnits="userSpaceOnUse" id="SVGID_13_" node-id="121" spreadMethod="pad" x1="249.6111" x2="251.7159" y1="-4317.015" y2="-4454.8667"><stop offset="0" stop-color="#30e3e7"></stop><stop offset="0.4721" stop-color="#32e4e5" stop-opacity="0.3"></stop><stop offset="1" stop-color="#35e5e3" stop-opacity="0"></stop></linearGradient><linearGradient gradientTransform="matrix(0.7071 0.7071 -0.7071 0.7071 -2506.5273 3066.292)" gradientUnits="userSpaceOnUse" id="SVGID_14_" node-id="126" spreadMethod="pad" x1="249.8435" x2="250.8903" y1="-4320.339" y2="-4388.8975"><stop offset="0" stop-color="#30e3e7"></stop><stop offset="0.4721" stop-color="#32e4e5" stop-opacity="0.3"></stop><stop offset="1" stop-color="#35e5e3" stop-opacity="0"></stop></linearGradient><linearGradient gradientTransform="matrix(0.7071 0.7071 -0.4371 0.4371 -1490.7374 2050.502)" gradientUnits="userSpaceOnUse" id="SVGID_15_" node-id="131" spreadMethod="pad" x1="249.8644" x2="250.6678" y1="-4664.0566" y2="-4716.6733"><stop offset="0" stop-color="#30e3e7"></stop><stop offset="0.4721" stop-color="#32e4e5" stop-opacity="0.3"></stop><stop offset="1" stop-color="#35e5e3" stop-opacity="0"></stop></linearGradient><linearGradient gradientTransform="matrix(0.4281 0.4281 -0.7071 0.7071 -2672.5266 2900.2927)" gradientUnits="userSpaceOnUse" id="SVGID_16_" node-id="137" spreadMethod="pad" x1="1154.7344" x2="1160.8137" y1="-3896.3625" y2="-4294.525"><stop offset="0" stop-color="#30e3e7"></stop><stop offset="0.4721" stop-color="#32e4e5" stop-opacity="0.3"></stop><stop offset="1" stop-color="#35e5e3" stop-opacity="0"></stop></linearGradient><linearGradient gradientTransform="matrix(0.4281 0.4281 -0.7071 0.7071 -2672.5266 2900.2927)" gradientUnits="userSpaceOnUse" id="SVGID_17_" node-id="142" spreadMethod="pad" x1="1155.4058" x2="1158.4292" y1="-3905.963" y2="-4103.9834"><stop offset="0" stop-color="#30e3e7"></stop><stop offset="0.4721" stop-color="#32e4e5" stop-opacity="0.3"></stop><stop offset="1" stop-color="#35e5e3" stop-opacity="0"></stop></linearGradient><linearGradient gradientTransform="matrix(0.4281 0.4281 -0.4371 0.4371 -1656.7367 1884.5026)" gradientUnits="userSpaceOnUse" id="SVGID_18_" node-id="147" spreadMethod="pad" x1="1155.4663" x2="1157.7867" y1="-3992.1348" y2="-4144.109"><stop offset="0" stop-color="#30e3e7"></stop><stop offset="0.4721" stop-color="#32e4e5" stop-opacity="0.3"></stop><stop offset="1" stop-color="#35e5e3" stop-opacity="0"></stop></linearGradient><linearGradient gradientTransform="matrix(0.4281 0.4281 -0.3384 0.3384 -3054.1094 3281.8757)" gradientUnits="userSpaceOnUse" id="SVGID_19_" node-id="153" spreadMethod="pad" x1="1097.2031" x2="1099.3202" y1="-9319.479" y2="-9458.133"><stop offset="0" stop-color="#30e3e7"></stop><stop offset="0.4721" stop-color="#32e4e5" stop-opacity="0.3"></stop><stop offset="1" stop-color="#35e5e3" stop-opacity="0"></stop></linearGradient><linearGradient gradientTransform="matrix(0.4281 0.4281 -0.3384 0.3384 -3054.1094 3281.8757)" gradientUnits="userSpaceOnUse" id="SVGID_20_" node-id="158" spreadMethod="pad" x1="1097.437" x2="1098.4899" y1="-9322.822" y2="-9391.779"><stop offset="0" stop-color="#30e3e7"></stop><stop offset="0.4721" stop-color="#32e4e5" stop-opacity="0.3"></stop><stop offset="1" stop-color="#35e5e3" stop-opacity="0"></stop></linearGradient><linearGradient gradientTransform="matrix(0.5404 0.5404 -0.8549 0.8549 -2444.8677 2773.6394)" gradientUnits="userSpaceOnUse" id="SVGID_21_" node-id="164" spreadMethod="pad" x1="813.4874" x2="815.6045" y1="-2980.5703" y2="-3119.2239"><stop offset="0" stop-color="#30e3e7"></stop><stop offset="0.4721" stop-color="#32e4e5" stop-opacity="0.3"></stop><stop offset="1" stop-color="#35e5e3" stop-opacity="0"></stop></linearGradient><linearGradient gradientTransform="matrix(0.5404 0.5404 -0.8549 0.8549 -2444.8677 2773.6394)" gradientUnits="userSpaceOnUse" id="SVGID_22_" node-id="169" spreadMethod="pad" x1="813.7212" x2="814.7741" y1="-2983.9133" y2="-3052.8708"><stop offset="0" stop-color="#30e3e7"></stop><stop offset="0.4721" stop-color="#32e4e5" stop-opacity="0.3"></stop><stop offset="1" stop-color="#35e5e3" stop-opacity="0"></stop></linearGradient><linearGradient gradientTransform="matrix(0.6074 0.6074 -0.4312 0.4312 -2401.7661 4053.0642)" gradientUnits="userSpaceOnUse" id="SVGID_23_" node-id="175" spreadMethod="pad" x1="-864.4165" x2="-862.048" y1="-7163.9424" y2="-7319.0684"><stop offset="0" stop-color="#30e3e7"></stop><stop offset="0.4721" stop-color="#32e4e5" stop-opacity="0.3"></stop><stop offset="1" stop-color="#35e5e3" stop-opacity="0"></stop></linearGradient><linearGradient gradientTransform="matrix(0.6074 0.6074 -0.4312 0.4312 -2401.7661 4053.0642)" gradientUnits="userSpaceOnUse" id="SVGID_24_" node-id="181" spreadMethod="pad" x1="-318.8469" x2="-317.8227" y1="-7395.3433" y2="-7462.4204"><stop offset="0" stop-color="#30e3e7"></stop><stop offset="0.4721" stop-color="#32e4e5" stop-opacity="0.3"></stop><stop offset="1" stop-color="#35e5e3" stop-opacity="0"></stop></linearGradient><radialGradient cx="872.4972" cy="637.2878" fx="872.4972" fy="637.2878" gradientUnits="userSpaceOnUse" id="SVGID_25_" node-id="187" r="210.2184" rev="7" spreadMethod="pad"><stop offset="0" stop-color="#2deec6"></stop><stop offset="1" stop-color="#51fec3" stop-opacity="0"></stop></radialGradient><radialGradient cx="-12493.764" cy="2360.1934" fx="-12493.764" fy="2360.1934" gradientTransform="matrix(-0.9627 0.2704 0.2704 0.9627 -12529.7432 1726.1483)" gradientUnits="userSpaceOnUse" id="SVGID_26_" node-id="201" r="145.7532" rev="6" spreadMethod="pad"><stop offset="0" stop-color="#08acd2"></stop><stop offset="1" stop-color="#08acd2" stop-opacity="0"></stop></radialGradient><radialGradient cx="66.9399" cy="844.8455" fx="66.9399" fy="844.8455" gradientTransform="matrix(0.9924 -0.1234 0.1234 0.9924 141.9945 -757.4224)" gradientUnits="userSpaceOnUse" id="SVGID_29_" node-id="228" r="139.2497" rev="5" spreadMethod="pad"><stop offset="0" stop-color="#fff17e"></stop><stop offset="0.9451" stop-color="#fff17e" stop-opacity="0"></stop></radialGradient><linearGradient gradientUnits="userSpaceOnUse" id="SVGID_30_" node-id="232" spreadMethod="pad" x1="276.5121" x2="363.8369" y1="29.875" y2="133.2963"><stop offset="0.1588" stop-color="#fdf47f"></stop><stop offset="1" stop-color="#f0731f"></stop></linearGradient><linearGradient gradientUnits="userSpaceOnUse" id="SVGID_31_" node-id="236" spreadMethod="pad" x1="176.3834" x2="444.6927" y1="77.338" y2="77.338"><stop offset="0" stop-color="#f17723"></stop><stop offset="0.9451" stop-color="#f7c658"></stop></linearGradient><linearGradient gradientUnits="userSpaceOnUse" id="SVGID_32_" node-id="259" spreadMethod="pad" x1="597.541" x2="572.0258" y1="418.051" y2="376.545"><stop offset="0" stop-color="#160050"></stop><stop offset="1" stop-color="#110a35"></stop></linearGradient><linearGradient gradientUnits="userSpaceOnUse" id="SVGID_33_" node-id="289" spreadMethod="pad" x1="513.0785" x2="533.3789" y1="357.1132" y2="357.1132"><stop offset="0" stop-color="#160050"></stop><stop offset="1" stop-color="#110a35"></stop></linearGradient><clipPath id="SVGID_2_" node-id="8"><path d="M 207.55 709.40 C 664.13 709.40 922.92 712.47 987.97 591.54 C 1065.88 446.70 916.45 26.96 380.84 26.96 C 58.40 26.96 -85.84 709.40 207.55 709.40 Z" fill="#000000" fill-rule="nonzero" node-id="497" stroke="none" target-height="685.505" target-width="1151.7251" target-x="-85.842" target-y="26.964"></path></clipPath><clipPath id="SVGID_28_" node-id="209"><path d="M 246.24 620.15 C 246.24 680.59 197.24 729.59 136.81 729.59 C 76.37 729.59 27.37 680.59 27.37 620.15 C 27.37 559.72 76.37 510.72 136.81 510.72 C 197.24 510.72 246.24 559.72 246.24 620.15 Z" fill="#000000" fill-rule="nonzero" node-id="501" stroke="none" target-height="218.86798" target-width="218.868" target-x="27.371" target-y="510.721"></path></clipPath></defs><path d="M 207.55 709.40 C 776.20 722.59 935.70 714.07 1000.75 593.14 C 1087.46 369.78 990.77 6.99 373.45 6.99 C 51.01 6.99 -165.35 709.40 207.55 709.40 Z" fill="#f0f0ff" fill-rule="nonzero" node-id="506" stroke="none" target-height="715.607" target-width="1252.813" target-x="-165.354" target-y="6.986"></path><path d="M 207.55 709.40 C 776.20 722.59 922.92 712.47 987.97 591.54 C 1074.67 368.19 916.45 26.96 380.84 26.96 C 58.40 26.96 -125.60 709.40 207.55 709.40 Z" fill="#c7d0ff" fill-rule="nonzero" node-id="508" stroke="none" target-height="695.629" target-width="1200.271" target-x="-125.598" target-y="26.964"></path><g node-id="974"><g node-id="976"><g clip-path="url(#SVGID_2_)" group-id="1,3" node-id="512"><path d="M 207.55 709.40 C 664.13 709.40 922.92 712.47 987.97 591.54 C 1065.88 446.70 916.45 26.96 380.84 26.96 C 58.40 26.96 -85.84 709.40 207.55 709.40 Z" fill="url(#SVGID_3_)" fill-rule="nonzero" group-id="1,3" node-id="514" stroke="none" target-height="685.505" target-width="1151.7251" target-x="-85.842" target-y="26.964"></path></g></g><g node-id="977"><g clip-path="url(#SVGID_2_)" group-id="1,4" node-id="517"><path d="M 79.61 718.79 C 79.61 718.79 164.77 653.95 269.96 669.44 C 375.15 684.93 499.39 748.27 499.39 748.27 L 626.97 705.63 C 626.97 705.63 608.42 638.00 515.70 612.21 C 422.99 586.42 389.18 605.25 340.33 600.29 C 291.48 595.33 101.97 527.73 29.09 542.66 C -43.78 557.60 79.61 718.79 79.61 718.79 Z" fill="#180b59" fill-opacity="0.5" fill-rule="nonzero" group-id="1,4" node-id="519" stroke="none" target-height="220.54602" target-width="670.751" target-x="-43.785" target-y="527.725"></path></g></g><g node-id="978"><g clip-path="url(#SVGID_2_)" group-id="1,5" node-id="522"><path d="M 183.66 2.59 C 183.66 2.59 429.79 150.83 544.26 134.44 C 658.74 118.06 748.03 145.63 760.62 160.42 C 773.21 175.20 978.98 185.39 978.98 185.39 L 978.98 314.64 C 978.98 314.64 823.75 363.99 747.63 302.46 C 671.52 240.93 683.71 302.42 631.76 294.07 C 559.64 282.48 562.44 357.00 413.00 313.05 C 263.57 269.10 344.68 193.38 206.83 185.39 C 68.99 177.40 60.60 111.67 60.60 111.67 L 183.66 2.59 Z" fill="#270b72" fill-opacity="0.5" fill-rule="nonzero" group-id="1,5" node-id="524" stroke="none" target-height="361.399" target-width="918.383" target-x="60.596" target-y="2.591"></path></g></g><g node-id="979"><g clip-path="url(#SVGID_2_)" group-id="1,6" node-id="527"><path d="M 962.24 270.45 L 963.08 273.77 L 963.43 277.10 L 963.30 280.49 L 962.68 283.97 L 961.64 287.33 L 960.19 290.69 L 958.29 294.05 L 955.92 297.43 L 952.35 301.56 L 948.12 305.51 L 943.15 309.29 L 937.85 312.58 L 932.00 315.49 L 925.56 318.02 L 918.90 319.93 L 912.49 321.18 L 906.28 321.80 L 900.04 321.82 L 894.27 321.26 L 888.93 320.16 L 884.99 318.92 L 881.44 317.40 L 878.25 315.63 L 875.38 313.59 L 872.77 311.21 L 870.60 308.60 L 868.85 305.74 L 867.50 302.60 L 866.66 299.29 L 866.31 295.95 L 866.44 292.56 L 867.06 289.08 L 868.10 285.72 L 869.56 282.37 L 871.45 279.01 L 873.82 275.62 L 877.39 271.50 L 881.62 267.55 L 886.59 263.77 L 891.89 260.48 L 897.74 257.56 L 904.19 255.04 L 910.84 253.12 L 917.26 251.87 L 923.47 251.26 L 929.70 251.23 L 935.47 251.79 L 940.81 252.90 L 944.75 254.14 L 948.30 255.65 L 951.49 257.43 L 954.36 259.46 L 956.98 261.84 L 959.14 264.46 L 960.89 267.32 L 962.24 270.45 Z" fill="#58569f" fill-opacity="0.3" fill-rule="nonzero" group-id="1,6,16" node-id="531" stroke="none" target-height="70.58644" target-width="97.12341" target-x="866.30975" target-y="251.23332"></path><path d="M 955.65 272.69 L 956.37 275.54 L 956.67 278.41 L 956.56 281.33 L 956.03 284.33 L 954.75 288.18 L 952.84 292.03 L 950.21 295.91 L 947.14 299.46 L 943.49 302.87 L 939.22 306.12 L 934.65 308.95 L 929.62 311.46 L 924.07 313.63 L 918.34 315.29 L 912.82 316.36 L 907.47 316.89 L 902.10 316.91 L 897.14 316.43 L 892.54 315.48 L 888.10 314.00 L 884.23 312.11 L 880.88 309.83 L 878.63 307.77 L 876.76 305.53 L 875.25 303.06 L 874.09 300.36 L 873.37 297.51 L 873.07 294.64 L 873.18 291.72 L 873.72 288.72 L 874.99 284.87 L 876.91 281.02 L 879.53 277.14 L 882.61 273.59 L 886.25 270.19 L 890.52 266.93 L 895.09 264.10 L 900.12 261.59 L 905.67 259.42 L 911.40 257.77 L 916.92 256.69 L 922.27 256.16 L 927.64 256.14 L 932.60 256.63 L 937.20 257.58 L 941.65 259.05 L 945.51 260.94 L 948.87 263.23 L 951.12 265.28 L 952.98 267.53 L 954.49 269.99 L 955.65 272.69 Z" fill="#786c9e" fill-opacity="0.4" fill-rule="nonzero" group-id="1,6,17" node-id="536" stroke="none" target-height="60.763947" target-width="83.6062" target-x="873.0683" target-y="256.1446"></path><path d="M 949.81 274.67 L 950.56 277.93 L 950.67 281.24 L 950.13 284.64 L 949.04 287.95 L 947.40 291.25 L 945.15 294.57 L 942.52 297.61 L 939.39 300.53 L 935.73 303.31 L 931.82 305.74 L 927.51 307.89 L 922.75 309.75 L 917.84 311.17 L 913.11 312.09 L 908.53 312.54 L 903.93 312.56 L 899.68 312.15 L 895.74 311.33 L 891.93 310.07 L 888.62 308.45 L 885.74 306.49 L 883.25 304.11 L 881.32 301.42 L 879.93 298.38 L 879.19 295.12 L 879.08 291.82 L 879.61 288.41 L 880.70 285.11 L 882.34 281.81 L 884.59 278.49 L 887.23 275.44 L 890.35 272.53 L 894.01 269.74 L 897.92 267.31 L 902.24 265.16 L 906.99 263.30 L 911.90 261.89 L 916.63 260.96 L 921.21 260.51 L 925.81 260.50 L 930.06 260.91 L 934.01 261.72 L 937.81 262.99 L 941.12 264.61 L 944.00 266.56 L 946.50 268.94 L 948.42 271.63 L 949.81 274.67 Z" fill="#8f72a4" fill-opacity="0.5" fill-rule="nonzero" group-id="1,6,18" node-id="541" stroke="none" target-height="52.06317" target-width="71.58862" target-x="879.07715" target-y="260.495"></path><path d="M 943.22 276.91 L 943.82 279.55 L 943.91 282.23 L 943.48 285.00 L 942.60 287.68 L 941.26 290.35 L 939.44 293.05 L 937.30 295.52 L 934.77 297.88 L 931.80 300.15 L 928.62 302.11 L 925.12 303.86 L 921.26 305.37 L 917.28 306.52 L 913.44 307.26 L 909.73 307.63 L 906.00 307.65 L 902.55 307.31 L 899.35 306.65 L 896.26 305.62 L 893.57 304.31 L 891.24 302.72 L 889.21 300.79 L 887.65 298.61 L 886.52 296.14 L 885.92 293.50 L 885.83 290.82 L 886.26 288.05 L 887.15 285.37 L 888.48 282.70 L 890.31 280.00 L 892.44 277.53 L 894.98 275.17 L 897.95 272.91 L 901.12 270.94 L 904.62 269.19 L 908.48 267.68 L 912.46 266.54 L 916.30 265.79 L 920.01 265.42 L 923.75 265.41 L 927.20 265.74 L 930.40 266.40 L 933.48 267.43 L 936.17 268.74 L 938.50 270.33 L 940.53 272.26 L 942.09 274.44 L 943.22 276.91 Z" fill="#af8da1" fill-opacity="0.6" fill-rule="nonzero" group-id="1,6,19" node-id="546" stroke="none" target-height="42.238953" target-width="58.080383" target-x="885.8313" target-y="265.4071"></path><path d="M 936.82 279.08 L 937.27 281.13 L 937.35 283.18 L 937.04 285.28 L 936.32 287.46 L 934.89 290.16 L 932.88 292.79 L 930.22 295.36 L 927.23 297.57 L 923.79 299.49 L 919.82 301.11 L 915.68 302.23 L 911.78 302.81 L 908.07 302.88 L 904.39 302.45 L 901.20 301.59 L 898.42 300.32 L 896.52 299.03 L 895.00 297.55 L 893.81 295.87 L 892.93 293.97 L 892.47 291.93 L 892.39 289.87 L 892.70 287.77 L 893.43 285.59 L 894.86 282.89 L 896.86 280.26 L 899.52 277.69 L 902.51 275.49 L 905.96 273.57 L 909.92 271.94 L 914.06 270.82 L 917.96 270.24 L 921.67 270.17 L 925.35 270.60 L 928.54 271.46 L 931.32 272.74 L 933.22 274.02 L 934.74 275.50 L 935.93 277.18 L 936.82 279.08 Z" fill="#a981af" fill-rule="nonzero" group-id="1,6,20" node-id="551" stroke="none" target-height="32.70575" target-width="44.956116" target-x="892.3933" target-y="270.1737"></path><path d="M 922.40 314.86 C 911.95 318.40 902.25 318.81 894.35 316.03 C 889.84 314.45 885.99 311.85 883.24 308.50 C 880.74 305.47 879.22 301.91 878.97 298.48 C 878.68 294.55 879.37 290.68 881.03 286.99 C 882.55 283.61 884.83 280.45 887.81 277.59 C 892.90 272.72 899.73 269.08 906.55 267.61 C 913.95 266.01 919.78 266.11 924.40 267.93 C 929.34 269.88 932.72 273.72 934.74 279.67 C 935.86 283.00 934.62 286.65 931.23 289.95 C 927.46 293.63 921.49 296.40 916.02 297.02 C 912.16 297.46 909.04 296.58 907.01 294.49 C 905.51 292.94 905.13 291.28 905.12 291.21 C 905.04 290.85 905.41 290.44 905.93 290.29 C 906.47 290.13 906.96 290.30 907.04 290.66 L 907.04 290.66 C 907.04 290.67 907.39 292.18 908.72 293.53 C 910.45 295.29 912.97 296.00 916.21 295.63 C 921.08 295.08 926.40 292.60 929.77 289.32 C 932.74 286.42 933.83 283.23 932.84 280.32 C 929.17 269.49 920.85 265.88 906.64 268.95 C 900.34 270.32 894.00 273.70 889.25 278.25 C 885.08 282.25 880.24 288.93 880.91 298.06 C 881.15 301.31 882.59 304.69 884.97 307.58 C 887.60 310.76 891.25 313.24 895.52 314.74 C 902.96 317.35 912.10 316.95 921.98 313.60 C 934.33 309.41 944.66 302.80 951.06 294.97 C 957.25 287.41 959.34 279.35 956.94 272.28 C 956.82 271.93 957.15 271.51 957.67 271.33 C 958.20 271.15 958.72 271.29 958.83 271.64 C 961.35 279.05 959.16 287.51 952.67 295.44 C 945.99 303.60 935.24 310.50 922.40 314.86 Z" fill="url(#SVGID_4_)" fill-opacity="0.6" fill-rule="nonzero" group-id="1,6,21" node-id="556" stroke="none" target-height="52.927002" target-width="82.66797" target-x="878.681" target-y="265.881"></path><path d="M 926.71 304.46 C 925.38 304.91 924.03 305.29 922.69 305.57 C 915.29 307.18 909.46 307.07 904.84 305.25 C 899.90 303.30 896.52 299.46 894.50 293.51 C 893.38 290.19 894.62 286.54 898.01 283.23 C 901.78 279.55 907.75 276.78 913.22 276.16 C 917.08 275.73 920.20 276.60 922.23 278.69 C 923.73 280.24 924.11 281.90 924.12 281.97 C 924.20 282.33 923.83 282.74 923.30 282.90 C 922.77 283.05 922.28 282.88 922.20 282.52 L 922.20 282.52 C 922.20 282.51 921.85 281.00 920.52 279.65 C 918.79 277.89 916.27 277.19 913.03 277.55 C 908.16 278.10 902.84 280.58 899.47 283.87 C 896.50 286.76 895.41 289.96 896.40 292.87 C 900.07 303.69 908.39 307.30 922.60 304.23 C 928.90 302.87 935.24 299.48 939.99 294.94 C 944.16 290.94 949.00 284.25 948.33 275.13 C 948.09 271.87 946.65 268.49 944.27 265.61 C 941.64 262.42 937.99 259.95 933.72 258.44 C 926.28 255.84 917.13 256.23 907.26 259.58 C 894.91 263.77 884.58 270.39 878.18 278.21 C 871.99 285.78 869.90 293.83 872.30 300.90 C 872.42 301.25 872.09 301.67 871.57 301.85 C 871.04 302.03 870.52 301.89 870.41 301.54 C 867.89 294.13 870.08 285.68 876.57 277.74 C 883.25 269.58 894.00 262.68 906.84 258.33 C 917.29 254.78 926.99 254.37 934.89 257.15 C 939.40 258.73 943.24 261.33 946.00 264.68 C 948.50 267.71 950.01 271.27 950.27 274.70 C 950.56 278.63 949.86 282.50 948.21 286.19 C 946.69 289.57 944.41 292.73 941.42 295.59 C 937.34 299.50 932.13 302.62 926.71 304.46 Z" fill="url(#SVGID_5_)" fill-opacity="0.6" fill-rule="nonzero" group-id="1,6,22" node-id="561" stroke="none" target-height="52.927994" target-width="82.666016" target-x="867.89" target-y="254.373"></path><path d="M 928.69 281.79 C 930.42 286.88 925.62 293.10 917.97 295.69 C 910.33 298.29 902.73 296.27 901.01 291.19 C 899.28 286.11 904.08 279.88 911.73 277.29 C 919.37 274.69 926.97 276.71 928.69 281.79 Z" fill="url(#SVGID_6_)" fill-rule="nonzero" group-id="1,6" node-id="564" stroke="none" target-height="23.592987" target-width="31.137024" target-x="899.282" target-y="274.694"></path></g></g><g node-id="980"><g clip-path="url(#SVGID_2_)" group-id="1,7" node-id="567"><path d="M 293.60 661.33 L 304.70 659.58 L 293.60 657.83 L 291.12 657.83 L 291.12 655.36 L 289.38 644.25 L 287.63 655.36 L 287.68 657.88 L 285.15 657.83 L 273.98 659.58 L 285.15 661.33 L 287.68 661.28 L 287.63 663.81 L 289.38 675.07 L 291.12 663.81 L 291.10 661.31 Z" fill="url(#SVGID_7_)" fill-rule="nonzero" group-id="1,7" node-id="569" stroke="none" target-height="30.820007" target-width="30.723999" target-x="273.981" target-y="644.253"></path><path d="M 935.15 429.00 L 949.01 426.82 L 935.15 424.64 L 932.06 424.64 L 932.06 421.55 L 929.87 407.68 L 927.69 421.55 L 927.75 424.70 L 924.60 424.64 L 910.65 426.82 L 924.60 429.00 L 927.75 428.94 L 927.69 432.09 L 929.87 446.16 L 932.06 432.09 L 932.03 428.97 Z" fill="url(#SVGID_8_)" fill-rule="nonzero" group-id="1,7" node-id="571" stroke="none" target-height="38.477997" target-width="38.35797" target-x="910.655" target-y="407.682"></path><path d="M 226.53 231.42 L 240.40 229.24 L 226.53 227.06 L 223.44 227.06 L 223.44 223.97 L 221.26 210.10 L 219.07 223.97 L 219.13 227.12 L 215.99 227.06 L 202.04 229.24 L 215.99 231.42 L 219.13 231.36 L 219.07 234.51 L 221.26 248.58 L 223.44 234.51 L 223.41 231.39 Z" fill="url(#SVGID_9_)" fill-rule="nonzero" group-id="1,7" node-id="573" stroke="none" target-height="38.47899" target-width="38.35701" target-x="202.04" target-y="210.1"></path><path d="M 875.48 362.16 L 883.25 360.94 L 875.48 359.71 L 873.74 359.71 L 873.74 357.98 L 872.52 350.21 L 871.29 357.98 L 871.33 359.75 L 869.56 359.71 L 861.74 360.94 L 869.56 362.16 L 871.33 362.13 L 871.29 363.89 L 872.52 371.78 L 873.74 363.89 L 873.73 362.14 Z" fill="url(#SVGID_10_)" fill-rule="nonzero" group-id="1,7" node-id="575" stroke="none" target-height="21.57602" target-width="21.507996" target-x="861.743" target-y="350.206"></path><path d="M 90.33 459.78 L 94.94 459.05 L 90.33 458.33 L 89.30 458.33 L 89.30 457.30 L 88.58 452.69 L 87.85 457.30 L 87.87 458.35 L 86.83 458.33 L 82.19 459.05 L 86.83 459.78 L 87.87 459.76 L 87.85 460.80 L 88.58 465.48 L 89.30 460.80 L 89.29 459.77 Z" fill="url(#SVGID_11_)" fill-rule="nonzero" group-id="1,7" node-id="577" stroke="none" target-height="12.786011" target-width="12.746002" target-x="82.192" target-y="452.692"></path></g></g><g node-id="981"><g clip-path="url(#SVGID_2_)" group-id="1,8" node-id="580"><path d="M 285.55 284.08 C 285.55 284.96 284.83 285.68 283.95 285.68 C 283.07 285.68 282.35 284.96 282.35 284.08 C 282.35 283.20 283.07 282.48 283.95 282.48 C 284.83 282.48 285.55 283.20 285.55 284.08 Z" fill="#ffffff" fill-opacity="0.3" fill-rule="nonzero" group-id="1,8" node-id="582" stroke="none" target-height="3.1960144" target-width="3.195984" target-x="282.351" target-y="282.481"></path><path d="M -55.67 699.82 C -55.67 700.70 -56.39 701.42 -57.27 701.42 C -58.16 701.42 -58.87 700.70 -58.87 699.82 C -58.87 698.94 -58.16 698.22 -57.27 698.22 C -56.39 698.22 -55.67 698.94 -55.67 699.82 Z" fill="#ffffff" fill-opacity="0.3" fill-rule="nonzero" group-id="1,8" node-id="584" stroke="none" target-height="3.195984" target-width="3.1959991" target-x="-58.871" target-y="698.221"></path><path d="M 64.99 649.87 C 64.99 650.76 64.28 651.47 63.39 651.47 C 62.51 651.47 61.80 650.76 61.80 649.87 C 61.80 648.99 62.51 648.28 63.39 648.28 C 64.28 648.28 64.99 648.99 64.99 649.87 Z" fill="#ffffff" fill-opacity="0.3" fill-rule="nonzero" group-id="1,8" node-id="586" stroke="none" target-height="3.195984" target-width="3.1959991" target-x="61.795" target-y="648.276"></path><path d="M 464.75 782.33 C 464.75 783.21 464.03 783.92 463.15 783.92 C 462.27 783.92 461.55 783.21 461.55 782.33 C 461.55 781.44 462.27 780.73 463.15 780.73 C 464.03 780.73 464.75 781.44 464.75 782.33 Z" fill="#ffffff" fill-opacity="0.3" fill-rule="nonzero" group-id="1,8" node-id="588" stroke="none" target-height="3.195984" target-width="3.195984" target-x="461.552" target-y="780.729"></path><path d="M 324.10 573.96 C 324.10 574.84 323.39 575.56 322.51 575.56 C 321.62 575.56 320.91 574.84 320.91 573.96 C 320.91 573.08 321.62 572.36 322.51 572.36 C 323.39 572.36 324.10 573.08 324.10 573.96 Z" fill="#ffffff" fill-opacity="0.3" fill-rule="nonzero" group-id="1,8" node-id="590" stroke="none" target-height="3.196045" target-width="3.1960144" target-x="320.908" target-y="572.36"></path><path d="M 160.09 391.36 C 160.09 392.24 159.37 392.96 158.49 392.96 C 157.61 392.96 156.89 392.24 156.89 391.36 C 156.89 390.48 157.61 389.76 158.49 389.76 C 159.37 389.76 160.09 390.48 160.09 391.36 Z" fill="#ffffff" fill-opacity="0.3" fill-rule="nonzero" group-id="1,8" node-id="592" stroke="none" target-height="3.1960144" target-width="3.1959991" target-x="156.89" target-y="389.762"></path><path d="M 142.50 257.71 C 142.50 258.59 141.79 259.31 140.91 259.31 C 140.02 259.31 139.31 258.59 139.31 257.71 C 139.31 256.83 140.02 256.11 140.91 256.11 C 141.79 256.11 142.50 256.83 142.50 257.71 Z" fill="#ffffff" fill-opacity="0.3" fill-rule="nonzero" group-id="1,8" node-id="594" stroke="none" target-height="3.1960144" target-width="3.1959991" target-x="139.309" target-y="256.11"></path><path d="M 239.40 306.45 C 239.40 307.34 238.68 308.05 237.80 308.05 C 236.92 308.05 236.20 307.34 236.20 306.45 C 236.20 305.57 236.92 304.86 237.80 304.86 C 238.68 304.86 239.40 305.57 239.40 306.45 Z" fill="#ffffff" fill-opacity="0.3" fill-rule="nonzero" group-id="1,8" node-id="596" stroke="none" target-height="3.1960144" target-width="3.1959991" target-x="236.202" target-y="304.856"></path><path d="M 48.41 727.39 C 48.41 728.27 47.69 728.99 46.81 728.99 C 45.93 728.99 45.21 728.27 45.21 727.39 C 45.21 726.51 45.93 725.79 46.81 725.79 C 47.69 725.79 48.41 726.51 48.41 727.39 Z" fill="#ffffff" fill-opacity="0.3" fill-rule="nonzero" group-id="1,8" node-id="598" stroke="none" target-height="3.196045" target-width="3.1959991" target-x="45.213" target-y="725.79"></path><path d="M 87.97 686.43 C 87.97 687.32 87.25 688.03 86.37 688.03 C 85.49 688.03 84.77 687.32 84.77 686.43 C 84.77 685.55 85.49 684.84 86.37 684.84 C 87.25 684.84 87.97 685.55 87.97 686.43 Z" fill="#ffffff" fill-opacity="0.3" fill-rule="nonzero" group-id="1,8" node-id="600" stroke="none" target-height="3.195984" target-width="3.1960068" target-x="84.77" target-y="684.835"></path><path d="M 161.68 315.64 C 161.68 316.53 160.97 317.24 160.09 317.24 C 159.20 317.24 158.49 316.53 158.49 315.64 C 158.49 314.76 159.20 314.05 160.09 314.05 C 160.97 314.05 161.68 314.76 161.68 315.64 Z" fill="#ffffff" fill-opacity="0.3" fill-rule="nonzero" group-id="1,8" node-id="602" stroke="none" target-height="3.1960144" target-width="3.1959991" target-x="158.488" target-y="314.046"></path><path d="M -94.83 297.06 C -94.83 297.95 -95.55 298.66 -96.43 298.66 C -97.31 298.66 -98.03 297.95 -98.03 297.06 C -98.03 296.18 -97.31 295.47 -96.43 295.47 C -95.55 295.47 -94.83 296.18 -94.83 297.06 Z" fill="#ffffff" fill-opacity="0.3" fill-rule="nonzero" group-id="1,8" node-id="604" stroke="none" target-height="3.195984" target-width="3.1959991" target-x="-98.028" target-y="295.467"></path><path d="M 314.31 504.83 C 314.31 505.72 313.60 506.43 312.72 506.43 C 311.83 506.43 311.12 505.72 311.12 504.83 C 311.12 503.95 311.83 503.24 312.72 503.24 C 313.60 503.24 314.31 503.95 314.31 504.83 Z" fill="#ffffff" fill-opacity="0.3" fill-rule="nonzero" group-id="1,8" node-id="606" stroke="none" target-height="3.1960144" target-width="3.1960144" target-x="311.119" target-y="503.236"></path><path d="M 251.98 435.91 C 251.98 436.79 251.27 437.51 250.39 437.51 C 249.50 437.51 248.79 436.79 248.79 435.91 C 248.79 435.03 249.50 434.31 250.39 434.31 C 251.27 434.31 251.98 435.03 251.98 435.91 Z" fill="#ffffff" fill-opacity="0.3" fill-rule="nonzero" group-id="1,8" node-id="608" stroke="none" target-height="3.1960144" target-width="3.1959991" target-x="248.788" target-y="434.313"></path><path d="M -22.11 553.98 C -22.11 554.86 -22.83 555.58 -23.71 555.58 C -24.59 555.58 -25.31 554.86 -25.31 553.98 C -25.31 553.10 -24.59 552.38 -23.71 552.38 C -22.83 552.38 -22.11 553.10 -22.11 553.98 Z" fill="#ffffff" fill-opacity="0.3" fill-rule="nonzero" group-id="1,8" node-id="610" stroke="none" target-height="3.195984" target-width="3.196001" target-x="-25.308" target-y="552.382"></path><path d="M 15.65 643.88 C 15.65 644.76 14.93 645.48 14.05 645.48 C 13.17 645.48 12.45 644.76 12.45 643.88 C 12.45 643.00 13.17 642.28 14.05 642.28 C 14.93 642.28 15.65 643.00 15.65 643.88 Z" fill="#ffffff" fill-opacity="0.3" fill-rule="nonzero" group-id="1,8" node-id="612" stroke="none" target-height="3.196045" target-width="3.196" target-x="12.45" target-y="642.282"></path></g></g><g node-id="982"><g clip-path="url(#SVGID_2_)" group-id="1,9" node-id="615"><path d="M 883.88 93.09 C 883.88 93.97 883.17 94.69 882.29 94.69 C 881.40 94.69 880.69 93.97 880.69 93.09 C 880.69 92.21 881.40 91.49 882.29 91.49 C 883.17 91.49 883.88 92.21 883.88 93.09 Z" fill="#ffffff" fill-opacity="0.3" fill-rule="nonzero" group-id="1,9" node-id="617" stroke="none" target-height="3.1960068" target-width="3.195984" target-x="880.688" target-y="91.492"></path><path d="M 542.66 508.83 C 542.66 509.71 541.95 510.43 541.06 510.43 C 540.18 510.43 539.47 509.71 539.47 508.83 C 539.47 507.95 540.18 507.23 541.06 507.23 C 541.95 507.23 542.66 507.95 542.66 508.83 Z" fill="#ffffff" fill-opacity="0.3" fill-rule="nonzero" group-id="1,9" node-id="619" stroke="none" target-height="3.1960144" target-width="3.195984" target-x="539.466" target-y="507.232"></path><path d="M 663.33 458.88 C 663.33 459.77 662.61 460.48 661.73 460.48 C 660.85 460.48 660.13 459.77 660.13 458.88 C 660.13 458.00 660.85 457.29 661.73 457.29 C 662.61 457.29 663.33 458.00 663.33 458.88 Z" fill="#ffffff" fill-opacity="0.3" fill-rule="nonzero" group-id="1,9" node-id="621" stroke="none" target-height="3.1960144" target-width="3.195984" target-x="660.133" target-y="457.287"></path><path d="M 1063.09 591.34 C 1063.09 592.22 1062.37 592.94 1061.49 592.94 C 1060.61 592.94 1059.89 592.22 1059.89 591.34 C 1059.89 590.46 1060.61 589.74 1061.49 589.74 C 1062.37 589.74 1063.09 590.46 1063.09 591.34 Z" fill="#ffffff" fill-opacity="0.3" fill-rule="nonzero" group-id="1,9" node-id="623" stroke="none" target-height="3.195984" target-width="3.196045" target-x="1059.89" target-y="589.741"></path><path d="M 922.44 382.97 C 922.44 383.85 921.73 384.57 920.84 384.57 C 919.96 384.57 919.25 383.85 919.25 382.97 C 919.25 382.09 919.96 381.37 920.84 381.37 C 921.73 381.37 922.44 382.09 922.44 382.97 Z" fill="#ffffff" fill-opacity="0.3" fill-rule="nonzero" group-id="1,9" node-id="625" stroke="none" target-height="3.195984" target-width="3.196045" target-x="919.246" target-y="381.371"></path><path d="M 758.42 200.37 C 758.42 201.25 757.71 201.97 756.83 201.97 C 755.94 201.97 755.23 201.25 755.23 200.37 C 755.23 199.49 755.94 198.77 756.83 198.77 C 757.71 198.77 758.42 199.49 758.42 200.37 Z" fill="#ffffff" fill-opacity="0.3" fill-rule="nonzero" group-id="1,9" node-id="627" stroke="none" target-height="3.1959991" target-width="3.195984" target-x="755.227" target-y="198.774"></path><path d="M 740.84 66.72 C 740.84 67.60 740.13 68.32 739.25 68.32 C 738.36 68.32 737.65 67.60 737.65 66.72 C 737.65 65.84 738.36 65.12 739.25 65.12 C 740.13 65.12 740.84 65.84 740.84 66.72 Z" fill="#ffffff" fill-opacity="0.3" fill-rule="nonzero" group-id="1,9" node-id="629" stroke="none" target-height="3.1959991" target-width="3.196045" target-x="737.647" target-y="65.122"></path><path d="M 837.74 115.47 C 837.74 116.35 837.02 117.06 836.14 117.06 C 835.26 117.06 834.54 116.35 834.54 115.47 C 834.54 114.58 835.26 113.87 836.14 113.87 C 837.02 113.87 837.74 114.58 837.74 115.47 Z" fill="#ffffff" fill-opacity="0.3" fill-rule="nonzero" group-id="1,9" node-id="631" stroke="none" target-height="3.1960068" target-width="3.196045" target-x="834.54" target-y="113.868"></path><path d="M 646.75 536.40 C 646.75 537.28 646.03 538.00 645.15 538.00 C 644.27 538.00 643.55 537.28 643.55 536.40 C 643.55 535.52 644.27 534.80 645.15 534.80 C 646.03 534.80 646.75 535.52 646.75 536.40 Z" fill="#ffffff" fill-opacity="0.3" fill-rule="nonzero" group-id="1,9" node-id="633" stroke="none" target-height="3.195984" target-width="3.195984" target-x="643.551" target-y="534.802"></path><path d="M 686.30 495.44 C 686.30 496.33 685.59 497.04 684.71 497.04 C 683.82 497.04 683.11 496.33 683.11 495.44 C 683.11 494.56 683.82 493.85 684.71 493.85 C 685.59 493.85 686.30 494.56 686.30 495.44 Z" fill="#ffffff" fill-opacity="0.3" fill-rule="nonzero" group-id="1,9" node-id="635" stroke="none" target-height="3.1960144" target-width="3.195984" target-x="683.107" target-y="493.847"></path><path d="M 760.02 124.66 C 760.02 125.54 759.31 126.25 758.42 126.25 C 757.54 126.25 756.83 125.54 756.83 124.66 C 756.83 123.77 757.54 123.06 758.42 123.06 C 759.31 123.06 760.02 123.77 760.02 124.66 Z" fill="#ffffff" fill-opacity="0.3" fill-rule="nonzero" group-id="1,9" node-id="637" stroke="none" target-height="3.1959991" target-width="3.195984" target-x="756.826" target-y="123.057"></path><path d="M 503.51 106.08 C 503.51 106.96 502.79 107.67 501.91 107.67 C 501.03 107.67 500.31 106.96 500.31 106.08 C 500.31 105.19 501.03 104.48 501.91 104.48 C 502.79 104.48 503.51 105.19 503.51 106.08 Z" fill="#ffffff" fill-opacity="0.3" fill-rule="nonzero" group-id="1,9" node-id="639" stroke="none" target-height="3.1960068" target-width="3.1960144" target-x="500.31" target-y="104.478"></path><path d="M 912.65 313.85 C 912.65 314.73 911.94 315.44 911.05 315.44 C 910.17 315.44 909.46 314.73 909.46 313.85 C 909.46 312.96 910.17 312.25 911.05 312.25 C 911.94 312.25 912.65 312.96 912.65 313.85 Z" fill="#ffffff" fill-opacity="0.3" fill-rule="nonzero" group-id="1,9" node-id="641" stroke="none" target-height="3.1960144" target-width="3.196045" target-x="909.457" target-y="312.248"></path><path d="M 850.32 244.92 C 850.32 245.80 849.61 246.52 848.72 246.52 C 847.84 246.52 847.13 245.80 847.13 244.92 C 847.13 244.04 847.84 243.32 848.72 243.32 C 849.61 243.32 850.32 244.04 850.32 244.92 Z" fill="#ffffff" fill-opacity="0.3" fill-rule="nonzero" group-id="1,9" node-id="643" stroke="none" target-height="3.1959991" target-width="3.196045" target-x="847.126" target-y="243.324"></path><path d="M 576.23 362.99 C 576.23 363.87 575.51 364.59 574.63 364.59 C 573.74 364.59 573.03 363.87 573.03 362.99 C 573.03 362.11 573.74 361.39 574.63 361.39 C 575.51 361.39 576.23 362.11 576.23 362.99 Z" fill="#ffffff" fill-opacity="0.3" fill-rule="nonzero" group-id="1,9" node-id="645" stroke="none" target-height="3.195984" target-width="3.195984" target-x="573.029" target-y="361.394"></path><path d="M 613.98 452.89 C 613.98 453.77 613.27 454.49 612.38 454.49 C 611.50 454.49 610.79 453.77 610.79 452.89 C 610.79 452.01 611.50 451.29 612.38 451.29 C 613.27 451.29 613.98 452.01 613.98 452.89 Z" fill="#ffffff" fill-opacity="0.3" fill-rule="nonzero" group-id="1,9" node-id="647" stroke="none" target-height="3.195984" target-width="3.195984" target-x="610.787" target-y="451.294"></path></g></g><g node-id="983"><g clip-path="url(#SVGID_2_)" group-id="1,10" node-id="650"><path d="M 694.10 285.68 C 694.10 286.56 693.38 287.27 692.50 287.27 C 691.61 287.27 690.90 286.56 690.90 285.68 C 690.90 284.79 691.61 284.08 692.50 284.08 C 693.38 284.08 694.10 284.79 694.10 285.68 Z" fill="#ffffff" fill-rule="nonzero" group-id="1,10" node-id="652" stroke="none" target-height="3.195984" target-width="3.195984" target-x="690.899" target-y="284.079"></path><path d="M 793.78 385.77 C 793.78 386.65 793.07 387.36 792.19 387.36 C 791.30 387.36 790.59 386.65 790.59 385.77 C 790.59 384.88 791.30 384.17 792.19 384.17 C 793.07 384.17 793.78 384.88 793.78 385.77 Z" fill="#ffffff" fill-rule="nonzero" group-id="1,10" node-id="654" stroke="none" target-height="3.1960144" target-width="3.195984" target-x="790.588" target-y="384.168"></path><path d="M 904.86 536.80 C 904.86 537.68 904.15 538.40 903.26 538.40 C 902.38 538.40 901.66 537.68 901.66 536.80 C 901.66 535.92 902.38 535.20 903.26 535.20 C 904.15 535.20 904.86 535.92 904.86 536.80 Z" fill="#ffffff" fill-rule="nonzero" group-id="1,10" node-id="656" stroke="none" target-height="3.195984" target-width="3.196045" target-x="901.665" target-y="535.201"></path><path d="M 955.61 632.09 C 955.61 632.98 954.89 633.69 954.01 633.69 C 953.12 633.69 952.41 632.98 952.41 632.09 C 952.41 631.21 953.12 630.50 954.01 630.50 C 954.89 630.50 955.61 631.21 955.61 632.09 Z" fill="#ffffff" fill-rule="nonzero" group-id="1,10" node-id="658" stroke="none" target-height="3.196045" target-width="3.195984" target-x="952.409" target-y="630.496"></path><path d="M 780.20 617.71 C 780.20 618.59 779.48 619.31 778.60 619.31 C 777.72 619.31 777.00 618.59 777.00 617.71 C 777.00 616.83 777.72 616.11 778.60 616.11 C 779.48 616.11 780.20 616.83 780.20 617.71 Z" fill="#ffffff" fill-rule="nonzero" group-id="1,10" node-id="660" stroke="none" target-height="3.195984" target-width="3.195984" target-x="777.003" target-y="616.111"></path><path d="M 415.00 635.69 C 415.00 636.57 414.29 637.29 413.41 637.29 C 412.52 637.29 411.81 636.57 411.81 635.69 C 411.81 634.81 412.52 634.09 413.41 634.09 C 414.29 634.09 415.00 634.81 415.00 635.69 Z" fill="#ffffff" fill-rule="nonzero" group-id="1,10" node-id="662" stroke="none" target-height="3.196045" target-width="3.195984" target-x="411.808" target-y="634.092"></path><path d="M 343.08 536.80 C 343.08 537.68 342.37 538.40 341.49 538.40 C 340.60 538.40 339.89 537.68 339.89 536.80 C 339.89 535.92 340.60 535.20 341.49 535.20 C 342.37 535.20 343.08 535.92 343.08 536.80 Z" fill="#ffffff" fill-rule="nonzero" group-id="1,10" node-id="664" stroke="none" target-height="3.195984" target-width="3.1960144" target-x="339.887" target-y="535.201"></path><path d="M 92.96 620.31 C 92.96 621.19 92.24 621.90 91.36 621.90 C 90.48 621.90 89.76 621.19 89.76 620.31 C 89.76 619.42 90.48 618.71 91.36 618.71 C 92.24 618.71 92.96 619.42 92.96 620.31 Z" fill="#ffffff" fill-rule="nonzero" group-id="1,10" node-id="666" stroke="none" target-height="3.196045" target-width="3.1959991" target-x="89.764" target-y="618.709"></path><path d="M 214.82 436.31 C 214.82 437.19 214.11 437.91 213.23 437.91 C 212.34 437.91 211.63 437.19 211.63 436.31 C 211.63 435.43 212.34 434.71 213.23 434.71 C 214.11 434.71 214.82 435.43 214.82 436.31 Z" fill="#ffffff" fill-rule="nonzero" group-id="1,10" node-id="668" stroke="none" target-height="3.195984" target-width="3.1959991" target-x="211.629" target-y="434.712"></path><path d="M 334.09 301.46 C 334.09 302.34 333.38 303.06 332.50 303.06 C 331.61 303.06 330.90 302.34 330.90 301.46 C 330.90 300.58 331.61 299.86 332.50 299.86 C 333.38 299.86 334.09 300.58 334.09 301.46 Z" fill="#ffffff" fill-rule="nonzero" group-id="1,10" node-id="670" stroke="none" target-height="3.1960144" target-width="3.195984" target-x="330.897" target-y="299.862"></path><path d="M 194.85 177.40 C 194.85 178.28 194.13 179.00 193.25 179.00 C 192.37 179.00 191.65 178.28 191.65 177.40 C 191.65 176.51 192.37 175.80 193.25 175.80 C 194.13 175.80 194.85 176.51 194.85 177.40 Z" fill="#ffffff" fill-rule="nonzero" group-id="1,10" node-id="672" stroke="none" target-height="3.1959991" target-width="3.1959991" target-x="191.651" target-y="175.799"></path><path d="M 716.07 93.49 C 716.07 94.37 715.35 95.09 714.47 95.09 C 713.59 95.09 712.87 94.37 712.87 93.49 C 712.87 92.61 713.59 91.89 714.47 91.89 C 715.35 91.89 716.07 92.61 716.07 93.49 Z" fill="#ffffff" fill-rule="nonzero" group-id="1,10" node-id="674" stroke="none" target-height="3.1959991" target-width="3.195984" target-x="712.874" target-y="91.892"></path><path d="M 583.82 177.40 C 583.82 178.28 583.10 179.00 582.22 179.00 C 581.34 179.00 580.62 178.28 580.62 177.40 C 580.62 176.51 581.34 175.80 582.22 175.80 C 583.10 175.80 583.82 176.51 583.82 177.40 Z" fill="#ffffff" fill-rule="nonzero" group-id="1,10" node-id="676" stroke="none" target-height="3.1959991" target-width="3.196045" target-x="580.621" target-y="175.799"></path><path d="M 345.08 111.47 C 345.08 112.35 344.37 113.07 343.48 113.07 C 342.60 113.07 341.88 112.35 341.88 111.47 C 341.88 110.59 342.60 109.87 343.48 109.87 C 344.37 109.87 345.08 110.59 345.08 111.47 Z" fill="#ffffff" fill-rule="nonzero" group-id="1,10" node-id="678" stroke="none" target-height="3.1959991" target-width="3.195984" target-x="341.885" target-y="109.872"></path><path d="M 258.38 93.49 C 258.38 94.37 257.66 95.09 256.78 95.09 C 255.90 95.09 255.18 94.37 255.18 93.49 C 255.18 92.61 255.90 91.89 256.78 91.89 C 257.66 91.89 258.38 92.61 258.38 93.49 Z" fill="#ffffff" fill-rule="nonzero" group-id="1,10" node-id="680" stroke="none" target-height="3.1959991" target-width="3.1960144" target-x="255.181" target-y="91.892"></path><path d="M 727.66 547.79 C 727.66 548.67 726.94 549.38 726.06 549.38 C 725.18 549.38 724.46 548.67 724.46 547.79 C 724.46 546.90 725.18 546.19 726.06 546.19 C 726.94 546.19 727.66 546.90 727.66 547.79 Z" fill="#ffffff" fill-rule="nonzero" group-id="1,10" node-id="682" stroke="none" target-height="3.195984" target-width="3.195984" target-x="724.461" target-y="546.189"></path><path d="M 612.98 461.48 C 612.98 462.36 612.27 463.08 611.39 463.08 C 610.50 463.08 609.79 462.36 609.79 461.48 C 609.79 460.60 610.50 459.88 611.39 459.88 C 612.27 459.88 612.98 460.60 612.98 461.48 Z" fill="#ffffff" fill-rule="nonzero" group-id="1,10" node-id="684" stroke="none" target-height="3.195984" target-width="3.195984" target-x="609.788" target-y="459.884"></path><path d="M 477.93 520.22 C 477.93 521.10 477.22 521.82 476.34 521.82 C 475.45 521.82 474.74 521.10 474.74 520.22 C 474.74 519.33 475.45 518.62 476.34 518.62 C 477.22 518.62 477.93 519.33 477.93 520.22 Z" fill="#ffffff" fill-rule="nonzero" group-id="1,10" node-id="686" stroke="none" target-height="3.195984" target-width="3.195984" target-x="474.738" target-y="518.619"></path><path d="M 414.40 169.41 C 414.40 170.29 413.69 171.00 412.81 171.00 C 411.92 171.00 411.21 170.29 411.21 169.41 C 411.21 168.52 411.92 167.81 412.81 167.81 C 413.69 167.81 414.40 168.52 414.40 169.41 Z" fill="#ffffff" fill-rule="nonzero" group-id="1,10" node-id="688" stroke="none" target-height="3.1959991" target-width="3.195984" target-x="411.208" target-y="167.808"></path><path d="M 676.91 256.51 C 676.91 259.60 674.41 262.10 671.32 262.10 C 668.23 262.10 665.73 259.60 665.73 256.51 C 665.73 253.42 668.23 250.91 671.32 250.91 C 674.41 250.91 676.91 253.42 676.91 256.51 Z" fill="url(#SVGID_12_)" fill-opacity="0.5" fill-rule="nonzero" group-id="1,10,23" node-id="692" stroke="none" target-height="11.188004" target-width="11.187988" target-x="665.726" target-y="250.915"></path><path d="M 730.05 375.78 C 730.05 377.98 728.27 379.77 726.06 379.77 C 723.85 379.77 722.06 377.98 722.06 375.78 C 722.06 373.57 723.85 371.78 726.06 371.78 C 728.27 371.78 730.05 373.57 730.05 375.78 Z" fill="#1673c8" fill-rule="nonzero" group-id="1,10" node-id="695" stroke="none" target-height="7.9920044" target-width="7.9920044" target-x="722.063" target-y="371.781"></path><path d="M 298.33 193.78 C 298.33 196.98 295.74 199.57 292.54 199.57 C 289.34 199.57 286.75 196.98 286.75 193.78 C 286.75 190.58 289.34 187.99 292.54 187.99 C 295.74 187.99 298.33 190.58 298.33 193.78 Z" fill="#5d4641" fill-rule="nonzero" group-id="1,10" node-id="697" stroke="none" target-height="11.587997" target-width="11.588013" target-x="286.745" target-y="187.985"></path><path d="M 370.45 268.90 C 370.45 271.10 368.66 272.89 366.46 272.89 C 364.25 272.89 362.46 271.10 362.46 268.90 C 362.46 266.69 364.25 264.90 366.46 264.90 C 368.66 264.90 370.45 266.69 370.45 268.90 Z" fill="#504b85" fill-rule="nonzero" group-id="1,10" node-id="699" stroke="none" target-height="7.9920044" target-width="7.9920044" target-x="362.462" target-y="264.9"></path><path d="M 147.10 454.89 C 147.10 459.52 143.34 463.28 138.71 463.28 C 134.08 463.28 130.32 459.52 130.32 454.89 C 130.32 450.26 134.08 446.50 138.71 446.50 C 143.34 446.50 147.10 450.26 147.10 454.89 Z" fill="#582b73" fill-rule="nonzero" group-id="1,10" node-id="701" stroke="none" target-height="16.782013" target-width="16.781998" target-x="130.319" target-y="446.499"></path></g></g><g node-id="984"><g clip-path="url(#SVGID_2_)" group-id="1,11" node-id="704"><path d="M 736.12 186.91 C 730.82 192.21 724.28 194.27 721.52 191.51 C 718.75 188.75 720.82 182.21 726.12 176.91 C 731.42 171.60 819.92 92.42 819.92 92.42 L 820.60 93.11 C 820.60 93.11 740.98 182.04 736.12 186.91 Z" fill="url(#SVGID_13_)" fill-opacity="0.3" fill-rule="nonzero" group-id="1,11,24,36" node-id="710" stroke="none" target-height="101.846" target-width="101.84796" target-x="718.754" target-y="92.424"></path><path d="M 731.82 186.38 C 729.18 189.01 725.93 190.04 724.56 188.67 C 723.18 187.29 724.21 184.04 726.85 181.41 C 729.48 178.77 773.50 139.39 773.50 139.39 L 773.84 139.73 C 773.84 139.73 734.24 183.96 731.82 186.38 Z" fill="url(#SVGID_14_)" fill-opacity="0.6" fill-rule="nonzero" group-id="1,11,24,37" node-id="715" stroke="none" target-height="50.651993" target-width="50.651978" target-x="723.185" target-y="139.388"></path><path d="M 728.67 188.38 C 727.41 189.63 725.55 189.79 724.49 188.73 C 723.44 187.68 723.60 185.81 724.85 184.56 C 726.10 183.31 747.66 165.30 747.66 165.30 L 747.92 165.56 C 747.92 165.56 729.81 187.23 728.67 188.38 Z" fill="url(#SVGID_15_)" fill-rule="nonzero" group-id="1,11,24" node-id="718" stroke="none" target-height="24.483002" target-width="24.483032" target-x="723.438" target-y="165.303"></path><path d="M 610.21 624.08 C 594.90 639.39 578.57 647.89 573.74 643.07 C 568.91 638.24 577.41 621.91 592.73 606.59 C 608.04 591.27 858.35 357.26 858.35 357.26 L 859.54 358.46 C 859.54 358.46 624.26 610.03 610.21 624.08 Z" fill="url(#SVGID_16_)" fill-opacity="0.3" fill-rule="nonzero" group-id="1,11,25,38" node-id="725" stroke="none" target-height="290.631" target-width="290.63" target-x="568.911" target-y="357.264"></path><path d="M 600.55 625.30 C 592.93 632.92 584.81 637.15 582.41 634.75 C 580.01 632.34 584.24 624.22 591.86 616.60 C 599.47 608.99 723.96 492.61 723.96 492.61 L 724.55 493.20 C 724.55 493.20 607.54 618.32 600.55 625.30 Z" fill="url(#SVGID_17_)" fill-opacity="0.6" fill-rule="nonzero" group-id="1,11,25,39" node-id="730" stroke="none" target-height="144.54099" target-width="144.54102" target-x="580.009" target-y="492.605"></path><path d="M 592.10 631.73 C 588.49 635.34 584.06 636.78 582.22 634.94 C 580.38 633.09 581.81 628.67 585.42 625.05 C 589.04 621.44 649.29 567.41 649.29 567.41 L 649.74 567.87 C 649.74 567.87 595.41 628.41 592.10 631.73 Z" fill="url(#SVGID_18_)" fill-rule="nonzero" group-id="1,11,25" node-id="733" stroke="none" target-height="69.367004" target-width="69.367004" target-x="580.375" target-y="567.412"></path><path d="M 576.34 597.01 C 573.79 599.56 570.35 600.27 568.67 598.59 C 566.99 596.91 567.70 593.47 570.25 590.92 C 572.80 588.37 615.99 550.85 615.99 550.85 L 616.41 551.27 C 616.41 551.27 578.68 594.67 576.34 597.01 Z" fill="url(#SVGID_19_)" fill-opacity="0.3" fill-rule="nonzero" group-id="1,11,26,40" node-id="740" stroke="none" target-height="49.419006" target-width="49.41797" target-x="566.991" target-y="550.851"></path><path d="M 573.96 596.45 C 572.69 597.72 570.99 598.07 570.15 597.23 C 569.31 596.40 569.66 594.69 570.93 593.42 C 572.20 592.15 593.68 573.49 593.68 573.49 L 593.89 573.70 C 593.89 573.70 575.12 595.28 573.96 596.45 Z" fill="url(#SVGID_20_)" fill-opacity="0.6" fill-rule="nonzero" group-id="1,11,26,41" node-id="745" stroke="none" target-height="24.57898" target-width="24.578003" target-x="569.312" target-y="573.49"></path><path d="M 557.02 658.88 C 550.57 665.33 543.62 668.84 541.50 666.71 C 539.38 664.59 542.89 657.64 549.33 651.19 C 555.78 644.74 661.32 546.37 661.32 546.37 L 661.84 546.90 C 661.84 546.90 562.93 652.97 557.02 658.88 Z" fill="url(#SVGID_21_)" fill-opacity="0.09" fill-rule="nonzero" group-id="1,11,27,42" node-id="753" stroke="none" target-height="122.462036" target-width="122.461975" target-x="539.379" target-y="546.373"></path><path d="M 552.88 659.32 C 549.67 662.52 546.21 664.27 545.16 663.21 C 544.10 662.16 545.85 658.70 549.05 655.49 C 552.26 652.29 604.75 603.36 604.75 603.36 L 605.01 603.62 C 605.00 603.62 555.82 656.38 552.88 659.32 Z" fill="url(#SVGID_22_)" fill-opacity="0.18" fill-rule="nonzero" group-id="1,11,27,43" node-id="758" stroke="none" target-height="60.90399" target-width="60.90497" target-x="544.101" target-y="603.364"></path><path d="M 173.06 437.98 C 169.42 441.62 164.31 442.41 161.64 439.74 C 158.97 437.07 159.76 431.95 163.40 428.31 C 167.03 424.68 229.07 371.64 229.07 371.64 L 229.73 372.30 C 229.73 372.30 176.40 434.64 173.06 437.98 Z" fill="url(#SVGID_23_)" fill-opacity="0.3" fill-rule="nonzero" group-id="1,11,28,44" node-id="766" stroke="none" target-height="70.76102" target-width="70.761" target-x="158.97" target-y="371.645"></path><path d="M 598.15 670.07 C 596.58 671.64 594.37 671.98 593.21 670.83 C 592.06 669.67 592.40 667.46 593.97 665.89 C 595.55 664.32 622.37 641.38 622.37 641.38 L 622.66 641.67 C 622.66 641.67 599.60 668.63 598.15 670.07 Z" fill="url(#SVGID_24_)" fill-opacity="0.3" fill-rule="nonzero" group-id="1,11,29,45" node-id="774" stroke="none" target-height="30.596985" target-width="30.596985" target-x="592.06" target-y="641.385"></path></g></g><g node-id="985"><g clip-path="url(#SVGID_2_)" group-id="1,12" node-id="779"><path d="M 1082.71 637.29 C 1082.71 753.39 988.60 847.51 872.50 847.51 C 756.40 847.51 662.28 753.39 662.28 637.29 C 662.28 521.19 756.40 427.07 872.50 427.07 C 988.60 427.07 1082.71 521.19 1082.71 637.29 Z" fill="url(#SVGID_25_)" fill-rule="nonzero" group-id="1,12" node-id="781" stroke="none" target-height="420.43597" target-width="420.43597" target-x="662.279" target-y="427.07"></path><path d="M 1020.32 637.29 C 1020.32 718.93 954.14 785.11 872.50 785.11 C 790.86 785.11 724.67 718.93 724.67 637.29 C 724.67 555.65 790.86 489.46 872.50 489.46 C 954.14 489.46 1020.32 555.65 1020.32 637.29 Z" fill="#2deec6" fill-rule="nonzero" group-id="1,12,30" node-id="785" stroke="none" target-height="295.64996" target-width="295.65002" target-x="724.672" target-y="489.463"></path><path d="M 880.95 489.71 C 889.26 516.88 904.63 552.48 931.05 570.10 C 955.05 586.09 988.41 593.75 1014.88 597.43 C 998.21 537.76 945.04 493.32 880.95 489.71 Z" fill="#51fec3" fill-rule="nonzero" group-id="1,12,30" node-id="787" stroke="none" target-height="107.72" target-width="133.92798" target-x="880.952" target-y="489.709"></path><path d="M 801.21 507.77 C 810.37 534.58 831.88 584.92 872.50 618.09 C 918.01 655.26 988.09 670.25 1015.49 674.90 C 1017.60 666.85 1019.04 658.53 1019.77 650.01 C 991.55 643.86 924.38 626.78 887.86 596.97 C 851.11 566.98 829.59 518.23 821.94 498.34 C 814.75 500.95 807.83 504.12 801.21 507.77 Z" fill="#51fec3" fill-rule="nonzero" group-id="1,12,30" node-id="789" stroke="none" target-height="176.56097" target-width="218.565" target-x="801.206" target-y="498.338"></path><path d="M 996.01 718.52 C 962.01 708.84 879.34 682.85 836.75 648.12 C 791.01 610.82 769.47 554.30 763.75 537.17 C 756.18 545.39 749.53 554.46 743.97 564.23 C 755.02 593.47 776.42 635.28 815.41 667.09 C 864.00 706.72 940.56 730.36 978.54 740.27 C 985.02 733.60 990.87 726.32 996.01 718.52 Z" fill="#51fec3" fill-rule="nonzero" group-id="1,12,30" node-id="791" stroke="none" target-height="203.09406" target-width="252.04297" target-x="743.966" target-y="537.173"></path><path d="M 910.11 780.28 C 923.64 776.73 936.40 771.31 948.12 764.32 C 910.65 753.27 836.13 728.49 796.43 696.11 C 760.33 666.68 739.31 625.28 729.24 600.71 C 726.26 612.41 724.67 624.66 724.67 637.29 C 724.67 644.44 725.19 651.47 726.17 658.35 C 738.11 677.81 754.03 697.90 775.09 715.08 C 813.57 746.47 869.60 767.83 910.11 780.28 Z" fill="#51fec3" fill-rule="nonzero" group-id="1,12,30" node-id="793" stroke="none" target-height="179.568" target-width="223.448" target-x="724.672" target-y="600.709"></path><path d="M 852.08 783.70 C 837.87 771.82 819.36 757.32 807.22 751.52 C 796.61 746.44 779.10 741.36 763.79 737.46 C 786.45 762.03 817.34 778.90 852.08 783.70 Z" fill="#51fec3" fill-rule="nonzero" group-id="1,12,30" node-id="795" stroke="none" target-height="46.246033" target-width="88.285034" target-x="763.795" target-y="737.456"></path><path d="M 983.85 612.33 C 983.85 569.58 965.69 531.08 936.68 504.09 C 917.27 494.72 895.50 489.46 872.50 489.46 C 790.86 489.46 724.67 555.65 724.67 637.29 C 724.67 680.04 742.83 718.54 771.83 745.53 C 791.25 754.90 813.02 760.15 836.02 760.15 C 917.66 760.15 983.85 693.97 983.85 612.33 Z" fill="#00cfc9" fill-opacity="0.5" fill-rule="nonzero" group-id="1,12,30,46" node-id="799" stroke="none" target-height="270.69202" target-width="259.174" target-x="724.672" target-y="489.463"></path><path d="M 1016.17 602.35 C 1016.21 602.52 1016.25 602.70 1016.29 602.87 C 1057.17 608.45 1082.71 616.38 1082.71 625.18 C 1082.71 642.08 988.60 655.78 872.50 655.78 C 756.40 655.78 662.28 642.08 662.28 625.18 C 662.28 616.38 687.82 608.45 728.70 602.87 C 728.75 602.70 728.79 602.52 728.83 602.35 C 664.57 610.07 622.57 622.84 622.57 637.29 C 622.57 660.87 734.47 679.98 872.50 679.98 C 1010.53 679.98 1122.42 660.87 1122.42 637.29 C 1122.42 622.84 1080.43 610.08 1016.17 602.35 Z" fill="#92ffd8" fill-opacity="0.5" fill-rule="nonzero" group-id="1,12,31" node-id="805" stroke="none" target-height="77.63495" target-width="499.84705" target-x="622.574" target-y="602.348"></path></g></g><g node-id="986"><g clip-path="url(#SVGID_2_)" group-id="1,13" node-id="809"><path d="M 282.56 620.15 C 282.56 700.65 217.30 765.91 136.81 765.91 C 56.31 765.91 -8.95 700.65 -8.95 620.15 C -8.95 539.66 56.31 474.40 136.81 474.40 C 217.30 474.40 282.56 539.66 282.56 620.15 Z" fill="url(#SVGID_26_)" fill-rule="nonzero" group-id="1,13" node-id="811" stroke="none" target-height="291.506" target-width="291.506" target-x="-8.948" target-y="474.402"></path><path d="M 246.24 620.15 C 246.24 680.59 197.24 729.59 136.81 729.59 C 76.37 729.59 27.37 680.59 27.37 620.15 C 27.37 559.72 76.37 510.72 136.81 510.72 C 197.24 510.72 246.24 559.72 246.24 620.15 Z" fill="#08acd2" fill-rule="nonzero" group-id="1,13" node-id="813" stroke="none" target-height="218.86798" target-width="218.868" target-x="27.371" target-y="510.721"></path><g clip-path="url(#SVGID_28_)" group-id="1,13,32,47" node-id="817"><path d="M 254.09 604.39 C 254.09 604.39 242.55 601.05 224.81 601.65 C 207.07 602.25 142.96 626.47 105.98 628.81 C 68.99 631.16 23.55 621.63 23.55 621.63 L 24.11 647.05 C 24.11 647.05 82.78 659.45 102.46 657.94 C 122.14 656.44 197.57 640.00 216.84 642.26 C 236.12 644.53 251.34 645.37 251.34 645.37 L 254.09 604.39 Z" fill="#11afcb" fill-rule="nonzero" group-id="1,13,32,47" node-id="819" stroke="none" target-height="58.395996" target-width="230.53801" target-x="23.549" target-y="601.054"></path><path d="M 98.76 658.31 C 76.49 658.31 24.62 647.40 24.06 647.29 L 23.88 647.25 L 23.30 621.33 L 23.60 621.40 C 24.05 621.49 69.43 630.89 105.96 628.58 C 127.22 627.23 157.98 618.50 182.69 611.48 C 201.23 606.22 217.24 601.67 224.80 601.41 C 242.38 600.82 254.04 604.13 254.16 604.17 L 254.34 604.22 L 251.56 645.62 L 251.33 645.61 C 251.18 645.60 235.88 644.74 216.82 642.50 C 204.69 641.08 169.62 647.19 141.44 652.10 C 124.44 655.07 109.76 657.62 102.48 658.18 C 101.36 658.27 100.12 658.31 98.76 658.31 Z M 24.35 646.86 C 28.00 647.62 83.57 659.15 102.44 657.71 C 109.69 657.15 124.37 654.59 141.36 651.63 C 169.57 646.72 204.68 640.60 216.87 642.03 C 234.63 644.11 249.12 645.00 251.12 645.12 L 253.84 604.57 C 252.28 604.16 241.11 601.34 224.82 601.89 C 217.31 602.14 201.33 606.68 182.82 611.93 C 158.09 618.96 127.30 627.70 105.99 629.05 C 101.98 629.31 97.85 629.42 93.70 629.42 C 61.56 629.42 27.32 622.64 23.79 621.92 L 24.35 646.86 Z" fill="#43cfd6" fill-rule="nonzero" group-id="1,13,32,47,51" node-id="823" stroke="none" target-height="58.327026" target-width="231.034" target-x="23.305" target-y="600.823"></path></g><g clip-path="url(#SVGID_28_)" group-id="1,13,32,48" node-id="827"><path d="M 255.72 628.42 C 255.72 628.42 241.82 623.19 232.44 623.63 C 223.06 624.07 126.85 651.09 108.87 652.12 C 90.88 653.15 33.43 638.59 22.40 640.96 C 11.37 643.32 31.15 672.12 31.15 672.12 C 31.15 672.12 65.36 686.95 113.44 689.74 C 161.52 692.53 233.08 675.35 249.82 681.61 C 266.57 687.88 255.72 628.42 255.72 628.42 Z" fill="#18b2ca" fill-rule="nonzero" group-id="1,13,32,48" node-id="829" stroke="none" target-height="69.33795" target-width="255.201" target-x="11.368" target-y="623.189"></path><path d="M 124.86 690.40 C 120.93 690.40 117.11 690.31 113.42 690.09 C 88.55 688.65 67.47 683.93 54.17 680.23 C 39.75 676.21 31.10 672.49 31.01 672.45 L 30.92 672.41 L 30.86 672.33 C 30.26 671.45 16.12 650.73 19.12 643.20 C 19.67 641.82 20.75 640.95 22.32 640.61 C 27.94 639.40 45.16 642.48 63.38 645.74 C 81.36 648.95 99.94 652.28 108.85 651.77 C 119.15 651.18 154.63 642.18 185.93 634.24 C 208.72 628.46 228.40 623.46 232.43 623.27 C 241.78 622.84 255.71 628.04 255.85 628.09 L 256.04 628.16 L 256.07 628.36 C 256.41 630.21 264.24 673.77 255.24 681.30 C 253.75 682.55 251.88 682.76 249.70 681.95 C 241.49 678.88 219.58 681.54 194.21 684.63 C 171.76 687.36 146.76 690.40 124.86 690.40 Z M 31.39 671.84 C 32.37 672.25 40.81 675.77 54.38 679.54 C 67.64 683.24 88.66 687.94 113.46 689.38 C 137.71 690.79 167.68 687.14 194.12 683.92 C 219.59 680.82 241.58 678.15 249.95 681.28 C 251.90 682.01 253.48 681.84 254.78 680.75 C 263.16 673.74 255.98 631.97 255.40 628.69 C 253.71 628.07 241.07 623.58 232.46 623.99 C 228.51 624.17 208.86 629.16 186.10 634.93 C 154.77 642.88 119.25 651.89 108.89 652.48 C 99.90 653.00 81.27 649.66 63.26 646.44 C 45.10 643.20 27.95 640.13 22.47 641.31 C 21.12 641.60 20.24 642.30 19.78 643.46 C 17.02 650.41 30.39 670.36 31.39 671.84 Z" fill="#4ad6dd" fill-rule="nonzero" group-id="1,13,32,48,52" node-id="833" stroke="none" target-height="67.951965" target-width="248.12001" target-x="16.119" target-y="622.835"></path></g><g clip-path="url(#SVGID_28_)" group-id="1,13,32,49" node-id="837"><path d="M 205.96 525.44 C 205.96 525.44 142.78 549.03 119.58 549.70 C 96.37 550.37 66.03 537.33 63.83 532.10 C 61.63 526.87 40.37 556.60 40.37 556.60 C 40.37 556.60 73.98 573.47 107.72 573.86 C 141.46 574.26 226.09 563.28 232.07 554.65 C 217.64 539.70 205.96 525.44 205.96 525.44 Z" fill="#11afcb" fill-rule="nonzero" group-id="1,13,32,49" node-id="839" stroke="none" target-height="48.817017" target-width="191.704" target-x="40.371" target-y="525.44"></path><path d="M 109.52 574.11 C 108.90 574.11 108.30 574.11 107.72 574.10 C 90.26 573.90 72.85 569.21 61.32 565.31 C 48.83 561.09 40.35 556.85 40.27 556.81 L 40.02 556.68 L 40.18 556.46 C 40.93 555.41 58.62 530.75 63.10 531.25 C 63.53 531.30 63.86 531.56 64.05 532.01 C 65.14 534.61 73.49 539.18 83.91 542.89 C 96.46 547.36 109.46 549.76 119.57 549.47 C 131.53 549.12 154.35 542.55 171.40 537.10 C 189.87 531.18 205.72 525.28 205.88 525.22 L 206.04 525.16 L 206.15 525.29 C 206.26 525.43 217.99 539.72 232.25 554.49 L 232.38 554.63 L 232.27 554.79 C 230.83 556.88 224.99 559.16 214.92 561.58 C 206.05 563.72 194.09 565.89 180.34 567.88 C 154.21 571.65 126.14 574.11 109.52 574.11 Z M 40.73 556.51 C 42.22 557.23 50.21 561.05 61.48 564.86 C 72.98 568.75 90.33 573.42 107.72 573.63 C 141.16 574.02 224.94 563.19 231.77 554.67 C 218.28 540.70 207.10 527.19 205.89 525.72 C 204.18 526.36 189.04 531.95 171.54 537.55 C 154.47 543.01 131.60 549.59 119.58 549.94 C 109.42 550.23 96.36 547.83 83.75 543.34 C 73.05 539.53 64.77 534.95 63.61 532.19 C 63.49 531.90 63.31 531.75 63.05 531.73 C 59.59 531.35 45.93 549.26 40.73 556.51 Z" fill="#43cfd6" fill-rule="nonzero" group-id="1,13,32,49" node-id="841" stroke="none" target-height="48.95398" target-width="192.36899" target-x="40.016" target-y="525.159"></path></g><g clip-path="url(#SVGID_28_)" group-id="1,13,32,50" node-id="844"><path d="M 199.43 506.08 C 199.43 506.08 176.34 534.49 125.33 538.95 C 74.31 543.41 63.97 522.19 63.97 522.19 L 124.92 501.05 L 199.43 506.08 Z" fill="#11afcb" fill-rule="nonzero" group-id="1,13,32,50" node-id="846" stroke="none" target-height="42.35501" target-width="135.458" target-x="63.97" target-y="501.053"></path><path d="M 111.87 539.80 C 105.49 539.80 99.58 539.35 94.18 538.45 C 86.95 537.24 80.63 535.22 75.41 532.45 C 66.48 527.72 63.86 522.51 63.76 522.30 L 63.64 522.05 L 63.89 521.97 L 124.89 500.81 L 199.90 505.87 L 199.61 506.23 C 197.61 508.70 191.27 514.97 181.63 521.04 C 170.53 528.05 151.75 536.88 125.35 539.19 C 120.66 539.60 116.16 539.80 111.87 539.80 Z M 64.31 522.33 C 65.38 524.27 68.92 528.49 75.68 532.06 C 83.82 536.36 99.05 541.01 125.31 538.71 C 151.61 536.41 170.32 527.62 181.38 520.64 C 191.83 514.05 197.60 507.81 198.94 506.28 L 124.95 501.29 L 64.31 522.33 Z" fill="#43cfd6" fill-rule="nonzero" group-id="1,13,32,50" node-id="848" stroke="none" target-height="40.195007" target-width="136.26498" target-x="63.637" target-y="500.813"></path></g><path d="M 107.21 514.80 C 113.82 512.94 120.45 511.74 127.05 511.14 C 84.60 532.68 62.24 583.70 76.23 633.51 C 92.03 689.76 148.19 723.19 201.73 708.28 C 191.38 715.90 179.51 721.83 166.40 725.51 C 108.21 741.86 47.79 707.93 31.45 649.75 C 15.10 591.56 49.03 531.14 107.21 514.80 Z" fill="#0c88b0" fill-opacity="0.5" fill-rule="nonzero" group-id="1,13,33" node-id="854" stroke="none" target-height="230.71198" target-width="186.62599" target-x="15.104" target-y="511.143"></path><path d="M 27.37 622.60 C 27.37 622.66 27.38 622.72 27.38 622.78 C 13.75 631.23 6.48 638.94 8.08 644.61 C 12.12 659.02 71.67 654.89 141.09 635.40 C 210.50 615.90 263.49 588.42 259.44 574.01 C 257.85 568.34 247.63 565.54 231.60 565.42 C 231.57 565.37 231.54 565.32 231.51 565.26 C 263.30 564.28 284.88 569.59 288.17 581.30 C 294.42 603.56 232.15 640.52 149.08 663.86 C 66.01 687.19 -6.41 688.05 -12.66 665.79 C -15.95 654.08 -0.29 638.31 27.37 622.60 Z" fill="#4acfdd" fill-opacity="0.5" fill-rule="nonzero" group-id="1,13,34" node-id="859" stroke="none" target-height="123.77197" target-width="310.36902" target-x="-15.946" target-y="564.28"></path></g></g><g clip-path="url(#SVGID_2_)" group-id="1,14" node-id="863"><path d="M 450.31 72.71 C 450.31 148.72 388.69 210.34 312.68 210.34 C 236.66 210.34 175.04 148.72 175.04 72.71 C 175.04 -3.31 236.66 -64.93 312.68 -64.93 C 388.69 -64.93 450.31 -3.31 450.31 72.71 Z" fill="url(#SVGID_29_)" fill-rule="nonzero" group-id="1,14" node-id="865" stroke="none" target-height="275.268" target-width="275.268" target-x="175.042" target-y="-64.928"></path><path d="M 399.76 72.71 C 399.76 120.80 360.77 159.79 312.68 159.79 C 264.58 159.79 225.59 120.80 225.59 72.71 C 225.59 24.61 264.58 -14.38 312.68 -14.38 C 360.77 -14.38 399.76 24.61 399.76 72.71 Z" fill="url(#SVGID_30_)" fill-rule="nonzero" group-id="1,14" node-id="867" stroke="none" target-height="174.166" target-width="174.166" target-x="225.593" target-y="-14.377"></path><path d="M 393.67 40.67 C 394.44 42.59 394.56 42.73 395.19 44.73 C 421.04 47.21 422.85 57.25 423.64 63.62 C 425.16 75.81 384.13 94.26 313.15 103.09 C 242.18 111.91 183.54 105.00 182.03 92.81 C 181.18 85.99 198.20 75.75 225.80 66.52 C 225.94 64.44 226.16 62.39 226.45 60.35 C 194.83 70.45 175.10 82.67 176.45 93.50 C 178.73 111.85 240.61 119.26 314.67 110.05 C 388.72 100.84 446.91 78.50 444.63 60.15 C 443.36 49.95 423.65 43.13 393.67 40.67 Z" fill="url(#SVGID_31_)" fill-opacity="0.4" fill-rule="nonzero" group-id="1,14,35" node-id="871" stroke="none" target-height="78.597" target-width="271.80798" target-x="175.101" target-y="40.666"></path></g></g><g node-id="975"><path d="M 469.54 302.71 C 469.54 302.71 471.95 290.29 472.13 284.36 C 472.13 282.13 467.50 281.20 464.72 280.46 C 461.94 279.72 433.94 270.63 433.94 270.63 C 433.94 270.63 427.26 268.22 427.63 280.28 C 428.00 292.33 448.53 302.13 448.53 302.13 L 469.54 302.71 Z" fill="#abbcd6" fill-rule="nonzero" group-id="2" node-id="878" stroke="none" target-height="34.488007" target-width="44.87201" target-x="427.261" target-y="268.224"></path><path d="M 431.02 306.55 C 431.02 306.55 433.37 292.70 433.37 290.57 C 433.37 288.44 430.60 286.10 424.00 284.61 C 417.39 283.12 389.70 276.30 389.70 276.30 C 389.70 276.30 379.05 277.79 381.61 294.40 C 382.68 298.45 405.68 307.82 405.68 307.82 L 431.02 306.55 Z" fill="#d9e6ff" fill-rule="nonzero" group-id="2" node-id="880" stroke="none" target-height="31.52301" target-width="54.314026" target-x="379.054" target-y="276.301"></path><path d="M 435.07 345.74 L 442.95 302.29 C 442.95 302.29 456.58 296.75 470.00 302.29 C 469.15 312.72 465.32 360.22 465.32 360.22 L 436.56 353.83 L 435.07 345.74 Z" fill="#abbcd6" fill-rule="nonzero" group-id="2" node-id="882" stroke="none" target-height="63.472015" target-width="34.931" target-x="435.072" target-y="296.748"></path><path d="M 626.77 423.90 C 626.77 423.90 649.34 430.08 656.37 437.11 C 663.40 444.14 658.72 456.49 652.75 457.13 C 647.43 457.77 636.14 448.19 636.14 448.19 C 639.12 453.51 640.40 456.28 637.84 458.84 C 635.29 461.39 624.50 448.55 621.90 445.28 C 619.31 442.01 620.16 438.81 620.16 438.81 L 626.77 423.90 Z" fill="#c8d4e8" fill-rule="nonzero" group-id="2" node-id="884" stroke="none" target-height="37.487" target-width="44.090027" target-x="619.311" target-y="423.905"></path><path d="M 577.78 421.35 L 619.74 448.19 C 619.74 448.19 631.45 433.92 629.54 423.90 C 620.59 417.51 603.76 405.80 603.76 405.80 L 577.78 421.35 Z" fill="#c8d4e8" fill-rule="nonzero" group-id="2" node-id="886" stroke="none" target-height="42.38501" target-width="53.674988" target-x="577.778" target-y="405.801"></path><path d="M 569.90 491.42 C 569.90 491.42 570.54 510.38 583.10 519.11 C 589.49 522.95 597.80 513.58 596.95 509.95 C 596.10 506.33 590.35 496.11 590.77 494.19 C 592.48 497.60 595.46 501.22 598.65 499.94 C 601.85 498.67 599.50 491.42 595.88 488.44 C 592.26 485.46 588.43 484.61 587.36 482.05 C 586.30 479.50 569.90 491.42 569.90 491.42 Z" fill="#ffffff" fill-rule="nonzero" group-id="2" node-id="888" stroke="none" target-height="43.450012" target-width="31.950012" target-x="569.897" target-y="479.497"></path><path d="M 403.34 307.40 L 407.38 368.10 C 407.38 368.10 409.30 380.24 425.70 388.76 C 442.10 397.28 460.20 404.10 470.86 405.80 C 481.50 407.50 517.29 421.99 520.70 425.82 C 524.10 429.65 568.19 494.19 568.19 494.19 C 568.19 494.19 583.53 486.10 587.36 482.05 C 583.95 472.89 557.97 420.50 557.97 420.50 L 552.43 391.32 L 486.83 356.81 L 465.53 351.49 L 437.41 350.85 L 431.66 304.84 C 431.66 304.84 414.20 301.01 403.34 307.40 Z" fill="#fafcff" fill-rule="nonzero" group-id="2" node-id="890" stroke="none" target-height="193.18399" target-width="184.02502" target-x="403.336" target-y="301.008"></path><path d="M 541.86 455.84 C 552.04 470.58 562.83 486.35 566.70 492.01 L 569.90 489.29 L 545.58 454.89 L 541.86 455.84 Z" fill="#b1c2dd" fill-rule="nonzero" group-id="2" node-id="892" stroke="none" target-height="37.11902" target-width="28.039978" target-x="541.857" target-y="454.891"></path><path d="M 547.96 453.72 C 540.72 453.08 526.23 424.97 526.23 424.97 C 526.23 424.97 523.89 420.28 521.55 419.86 C 512.60 418.58 473.84 399.41 473.84 399.41 L 474.90 406.71 C 488.56 410.39 517.64 422.38 520.70 425.82 C 522.04 427.34 531.68 441.20 540.50 453.94 C 544.28 455.96 545.66 454.21 547.96 453.72 Z" fill="#b1c2dd" fill-rule="nonzero" group-id="2" node-id="894" stroke="none" target-height="56.54898" target-width="74.12097" target-x="473.838" target-y="399.411"></path><path d="M 425.70 388.76 C 441.58 397.01 459.06 403.66 469.82 405.62 C 469.35 403.28 468.61 399.72 467.45 394.30 C 436.14 391.32 416.75 371.72 416.75 371.72 L 411.53 376.95 C 414.22 380.71 418.60 385.07 425.70 388.76 Z" fill="#b1c2dd" fill-rule="nonzero" group-id="2" node-id="896" stroke="none" target-height="33.901" target-width="58.287994" target-x="411.53" target-y="371.722"></path><path d="M 405.89 309.53 L 403.54 310.44 L 407.38 368.10 C 407.38 368.10 407.86 371.14 410.39 375.24 C 411.72 374.03 413.51 372.25 415.90 369.59 C 409.51 370.44 405.89 309.53 405.89 309.53 Z" fill="#b1c2dd" fill-rule="nonzero" group-id="2" node-id="898" stroke="none" target-height="65.70697" target-width="12.364014" target-x="403.539" target-y="309.528"></path><path d="M 480.65 373.21 C 480.65 373.21 474.69 376.19 474.48 391.74 C 474.48 399.41 478.10 407.72 478.10 407.72 C 478.10 407.72 471.07 409.00 467.45 405.80 C 465.10 400.69 463.83 390.46 465.74 383.22 C 467.66 375.98 473.41 370.66 473.41 370.66 L 480.65 373.21 Z" fill="#db6445" fill-rule="nonzero" group-id="2" node-id="900" stroke="none" target-height="38.33899" target-width="16.827026" target-x="463.826" target-y="370.657"></path><path d="M 487.04 376.62 C 487.04 376.62 490.24 402.61 504.51 417.52 C 497.69 415.17 488.53 412.19 487.89 410.91 C 487.26 409.63 474.96 380.28 477.27 374.62 C 479.59 368.95 487.04 376.62 487.04 376.62 Z" fill="#7c8f9b" fill-rule="nonzero" group-id="2" node-id="902" stroke="none" target-height="48.56198" target-width="29.544983" target-x="474.963" target-y="368.954"></path><path d="M 468.07 358.20 C 468.07 358.20 465.11 351.06 470.00 346.38 C 474.90 341.69 492.79 331.47 495.14 330.83 C 497.48 330.19 505.15 326.36 517.29 332.53 C 529.43 338.71 563.50 356.82 563.50 356.82 L 555.41 363.20 C 555.41 363.20 529.22 383.01 524.96 382.80 C 520.70 382.58 468.07 358.20 468.07 358.20 Z" fill="#aec3e5" fill-rule="nonzero" group-id="2" node-id="904" stroke="none" target-height="56.655975" target-width="98.395966" target-x="465.105" target-y="326.355"></path><path d="M 522.76 394.57 C 522.76 394.57 527.30 397.92 532.84 393.02 C 538.37 388.12 549.24 380.88 549.24 380.88 L 557.97 364.90 L 556.04 361.48 L 524.96 382.80 L 522.76 394.57 Z" fill="#95a9c6" fill-rule="nonzero" group-id="2" node-id="906" stroke="none" target-height="36.444" target-width="35.213013" target-x="522.756" target-y="361.476"></path><path d="M 471.82 371.28 L 467.58 356.50 C 467.00 354.48 469.12 352.74 470.99 353.71 L 525.02 381.64 C 525.65 381.97 526.11 382.56 526.26 383.26 L 528.40 392.88 C 528.83 394.79 526.89 396.38 525.09 395.59 L 473.17 372.81 C 472.51 372.53 472.02 371.96 471.82 371.28 Z" fill="#718db5" fill-rule="nonzero" group-id="2" node-id="908" stroke="none" target-height="43.642" target-width="61.824036" target-x="467.003" target-y="352.742"></path><path d="M 587.36 420.71 C 587.36 420.71 579.69 429.44 560.95 423.90 C 542.21 418.37 539.44 397.92 539.65 395.58 C 539.87 393.23 540.50 388.55 543.70 385.99 C 546.89 383.44 550.30 405.80 550.30 405.80 L 560.10 413.68 L 574.37 419.64 L 587.36 420.71 Z" fill="#db6445" fill-rule="nonzero" group-id="2" node-id="910" stroke="none" target-height="46.00699" target-width="47.922974" target-x="539.439" target-y="383.436"></path><path d="M 612.71 388.87 C 612.71 408.22 597.02 423.90 577.67 423.90 C 558.32 423.90 542.63 408.22 542.63 388.87 C 542.63 369.52 558.32 353.83 577.67 353.83 C 597.02 353.83 612.71 369.52 612.71 388.87 Z" fill="#ffffff" fill-rule="nonzero" group-id="2" node-id="912" stroke="none" target-height="70.074005" target-width="70.074036" target-x="542.634" target-y="353.831"></path><path d="M 612.50 392.17 C 612.07 406.44 598.23 423.90 577.67 423.90 C 562.23 423.90 552.43 411.12 552.43 396.00 C 552.43 385.89 561.16 368.31 587.36 368.31 C 611.11 368.31 612.71 381.31 612.50 392.17 Z" fill="url(#SVGID_32_)" fill-rule="nonzero" group-id="2" node-id="914" stroke="none" target-height="55.591003" target-width="60.276978" target-x="552.432" target-y="368.314"></path><path d="M 558.61 382.80 C 558.61 382.80 566.28 368.95 589.92 369.38 C 613.56 369.81 612.33 394.33 612.33 394.33 C 612.33 394.33 612.92 389.69 612.71 387.20 C 612.50 384.71 611.85 365.16 589.28 364.69 C 568.62 364.27 559.89 371.30 554.56 380.03 C 556.05 381.31 558.61 382.80 558.61 382.80 Z" fill="#eef6ff" fill-rule="nonzero" group-id="2" node-id="916" stroke="none" target-height="30.067993" target-width="58.999023" target-x="554.561" target-y="364.267"></path><path d="M 558.18 381.95 C 558.18 381.95 566.28 368.53 589.92 368.95 C 613.56 369.38 612.33 394.33 612.33 394.33 C 612.33 394.33 612.92 389.69 612.71 387.20 C 612.50 384.71 611.85 363.24 589.28 362.78 C 568.62 362.35 558.39 371.30 553.07 380.03 C 554.56 381.31 558.18 381.95 558.18 381.95 Z" fill="#bbd7ff" fill-rule="nonzero" group-id="2" node-id="918" stroke="none" target-height="31.984985" target-width="60.48999" target-x="553.07" target-y="362.35"></path><path d="M 561.80 388.76 C 561.80 394.41 557.71 398.99 553.71 398.99 C 549.71 398.99 546.47 394.41 546.47 388.76 C 546.47 383.12 550.13 377.69 554.13 377.69 C 558.13 377.69 561.80 381.73 561.80 388.76 Z" fill="#656e7c" fill-rule="nonzero" group-id="2" node-id="920" stroke="none" target-height="21.299988" target-width="15.335999" target-x="546.467" target-y="377.685"></path><path d="M 560.95 388.76 C 560.95 394.41 557.71 398.99 553.71 398.99 C 549.71 398.99 546.47 394.41 546.47 388.76 C 546.47 383.11 549.71 378.54 553.71 378.54 C 557.71 378.54 560.95 383.11 560.95 388.76 Z" fill="#9ea8b7" fill-rule="nonzero" group-id="2" node-id="922" stroke="none" target-height="20.447998" target-width="14.484009" target-x="546.467" target-y="378.537"></path><path d="M 559.44 388.76 C 559.44 393.23 556.88 396.86 553.71 396.86 C 550.54 396.86 547.98 393.23 547.98 388.76 C 547.98 384.29 550.54 380.67 553.71 380.67 C 556.88 380.67 559.44 384.29 559.44 388.76 Z" fill="#d6deea" fill-rule="nonzero" group-id="2" node-id="924" stroke="none" target-height="16.188019" target-width="11.466003" target-x="547.976" target-y="380.667"></path><path d="M 558.69 388.76 C 558.69 392.64 556.46 395.79 553.71 395.79 C 550.96 395.79 548.73 392.64 548.73 388.76 C 548.73 384.88 550.96 381.73 553.71 381.73 C 556.46 381.73 558.69 384.88 558.69 388.76 Z" fill="#acb6c1" fill-rule="nonzero" group-id="2" node-id="926" stroke="none" target-height="14.058014" target-width="9.958008" target-x="548.73" target-y="381.732"></path><path d="M 558.08 388.76 C 558.08 392.17 556.13 394.94 553.71 394.94 C 551.29 394.94 549.33 392.17 549.33 388.76 C 549.33 385.35 551.29 382.58 553.71 382.58 C 556.13 382.58 558.08 385.35 558.08 388.76 Z" fill="#e5f0f9" fill-rule="nonzero" group-id="2" node-id="928" stroke="none" target-height="12.353973" target-width="8.75" target-x="549.334" target-y="382.584"></path><path d="M 438.02 350.86 C 438.02 350.86 426.13 353.40 424.42 358.94 C 422.38 365.57 420.04 375.58 412.75 378.55 C 410.58 379.39 409.12 375.51 410.02 374.62 C 410.92 373.73 418.03 365.12 419.95 357.66 C 421.44 350.63 432.14 349.16 437.12 348.51 C 437.28 349.77 437.40 350.50 437.40 350.50 L 437.42 350.85 L 438.02 350.86 Z" fill="#db6445" fill-rule="nonzero" group-id="2" node-id="930" stroke="none" target-height="30.875" target-width="28.902008" target-x="409.117" target-y="348.515"></path><path d="M 568.19 494.19 C 568.19 494.19 564.97 493.26 565.83 490.74 C 566.70 488.23 580.58 483.20 585.78 478.26 C 586.82 478.82 588.21 480.77 587.36 482.05 C 586.51 483.33 572.24 493.13 568.19 494.19 Z" fill="#db6445" fill-rule="nonzero" group-id="2" node-id="932" stroke="none" target-height="15.934998" target-width="23.24701" target-x="564.967" target-y="478.258"></path><path d="M 432.17 308.89 C 432.17 308.89 420.73 305.44 403.62 311.63 C 402.63 311.25 402.91 307.82 403.34 307.40 C 403.76 306.97 409.51 303.35 417.18 303.35 C 424.85 303.35 431.67 304.84 431.67 304.84 C 431.67 304.84 433.10 307.40 432.17 308.89 Z" fill="#db6445" fill-rule="nonzero" group-id="2" node-id="934" stroke="none" target-height="8.283997" target-width="30.473999" target-x="402.628" target-y="303.351"></path><path d="M 442.33 305.71 C 442.33 305.71 460.66 302.30 469.70 306.02 C 470.52 306.00 470.22 302.93 470.00 302.29 C 469.79 301.65 464.04 299.31 459.35 299.31 C 454.67 299.31 445.08 300.58 442.95 302.29 C 442.10 303.35 441.71 305.93 442.33 305.71 Z" fill="#b5503c" fill-rule="nonzero" group-id="2" node-id="936" stroke="none" target-height="6.7180176" target-width="28.807983" target-x="441.712" target-y="299.305"></path><path d="M 619.74 448.19 C 619.74 448.19 615.34 446.99 615.30 445.35 C 616.93 443.78 626.40 428.65 626.59 421.81 C 627.59 420.68 629.53 423.90 629.53 423.90 C 629.53 423.90 631.24 430.93 624.64 442.01 C 620.80 448.19 619.74 448.19 619.74 448.19 Z" fill="#b5503c" fill-rule="nonzero" group-id="2" node-id="938" stroke="none" target-height="27.507996" target-width="15.937012" target-x="615.302" target-y="420.678"></path><path d="M 569.43 443.83 C 569.43 443.83 552.62 454.53 539.64 452.64 C 538.59 454.58 540.72 457.02 542.63 456.97 C 544.55 456.92 555.79 458.32 571.90 448.89 C 573.22 446.85 571.74 444.15 569.43 443.83 Z" fill="#db6445" fill-rule="nonzero" group-id="2" node-id="940" stroke="none" target-height="14.493011" target-width="34.636047" target-x="538.587" target-y="443.827"></path><path d="M 532.84 429.23 C 532.84 429.23 547.32 429.02 552.43 423.90 C 555.20 430.93 556.90 434.98 556.90 434.98 C 556.90 434.98 544.12 440.73 537.31 438.18 C 537.10 437.75 532.84 429.23 532.84 429.23 Z" fill="#d82e21" fill-rule="nonzero" group-id="2" node-id="942" stroke="none" target-height="16.826996" target-width="24.067993" target-x="532.836" target-y="423.905"></path><path d="M 511.60 378.80 L 520.85 382.44 C 521.41 382.66 521.82 383.17 521.92 383.77 L 522.55 387.53 C 522.78 388.93 521.34 390.00 520.07 389.37 L 510.63 384.69 C 510.13 384.44 509.78 383.96 509.69 383.41 L 509.25 380.69 C 509.04 379.36 510.35 378.31 511.60 378.80 Z" fill="#47688e" fill-rule="nonzero" group-id="2" node-id="944" stroke="none" target-height="11.688995" target-width="13.745026" target-x="509.038" target-y="378.308"></path><path d="M 505.57 381.73 C 505.57 382.32 505.10 382.80 504.51 382.80 C 503.92 382.80 503.44 382.32 503.44 381.73 C 503.44 381.14 503.92 380.67 504.51 380.67 C 505.10 380.67 505.57 381.14 505.57 381.73 Z" fill="#47688e" fill-rule="nonzero" group-id="2" node-id="946" stroke="none" target-height="2.130005" target-width="2.130005" target-x="503.443" target-y="380.668"></path><path d="M 501.31 379.60 C 501.31 380.19 500.84 380.67 500.25 380.67 C 499.66 380.67 499.18 380.19 499.18 379.60 C 499.18 379.01 499.66 378.54 500.25 378.54 C 500.84 378.54 501.31 379.01 501.31 379.60 Z" fill="#47688e" fill-rule="nonzero" group-id="2" node-id="948" stroke="none" target-height="2.130005" target-width="2.1299744" target-x="499.183" target-y="378.538"></path><path d="M 497.27 377.69 C 497.27 378.27 496.79 378.75 496.20 378.75 C 495.61 378.75 495.14 378.27 495.14 377.69 C 495.14 377.10 495.61 376.62 496.20 376.62 C 496.79 376.62 497.27 377.10 497.27 377.69 Z" fill="#47688e" fill-rule="nonzero" group-id="2" node-id="950" stroke="none" target-height="2.130005" target-width="2.130005" target-x="495.136" target-y="376.621"></path><path d="M 493.43 376.19 C 493.43 376.78 492.96 377.26 492.37 377.26 C 491.78 377.26 491.30 376.78 491.30 376.19 C 491.30 375.61 491.78 375.13 492.37 375.13 C 492.96 375.13 493.43 375.61 493.43 376.19 Z" fill="#47688e" fill-rule="nonzero" group-id="2" node-id="952" stroke="none" target-height="2.130005" target-width="2.130005" target-x="491.302" target-y="375.13"></path><path d="M 471.49 357.66 L 474.69 369.38 L 477.03 370.66 L 473.84 359.15 Z" fill="#47688e" fill-rule="nonzero" group-id="2" node-id="954" stroke="none" target-height="12.993011" target-width="5.538025" target-x="471.494" target-y="357.664"></path><path d="M 474.90 359.15 L 478.10 370.87 L 480.44 372.15 L 477.25 360.65 Z" fill="#47688e" fill-rule="nonzero" group-id="2" node-id="956" stroke="none" target-height="12.993011" target-width="5.5379944" target-x="474.902" target-y="359.155"></path><path d="M 478.31 361.07 L 481.50 372.79 L 483.85 374.06 L 480.65 362.56 Z" fill="#47688e" fill-rule="nonzero" group-id="2" node-id="958" stroke="none" target-height="12.993011" target-width="5.5379944" target-x="478.31" target-y="361.072"></path><path d="M 501.44 341.20 L 510.70 335.19 C 511.18 334.89 511.08 334.17 510.54 334.01 L 509.60 333.72 C 509.41 333.66 509.20 333.69 509.04 333.80 L 500.20 339.81 C 499.79 340.09 499.82 340.70 500.25 340.94 L 500.76 341.22 C 500.98 341.34 501.24 341.33 501.44 341.20 Z" fill="#47688e" fill-rule="nonzero" group-id="2" node-id="960" stroke="none" target-height="7.682007" target-width="11.386017" target-x="499.791" target-y="333.659"></path><path d="M 498.37 338.92 L 506.03 334.02 C 506.70 333.59 506.50 332.56 505.71 332.42 L 505.05 332.29 C 504.83 332.25 504.60 332.30 504.41 332.42 L 497.08 337.25 C 496.54 337.61 496.56 338.40 497.12 338.74 L 497.44 338.94 C 497.73 339.11 498.09 339.10 498.37 338.92 Z" fill="#47688e" fill-rule="nonzero" group-id="2" node-id="962" stroke="none" target-height="6.860016" target-width="10.159027" target-x="496.541" target-y="332.249"></path><g node-id="988"><path d="M 533.73 357.61 C 533.73 363.41 529.03 368.12 523.23 368.12 C 517.43 368.12 512.73 363.41 512.73 357.61 C 512.73 351.81 517.43 347.11 523.23 347.11 C 529.03 347.11 533.73 351.81 533.73 357.61 Z" fill="#f8f9ff" fill-rule="nonzero" group-id="2,15" node-id="966" stroke="none" target-height="21.005981" target-width="21.005981" target-x="512.726" target-y="347.109"></path><path d="M 533.38 357.11 C 533.38 362.72 528.83 367.26 523.23 367.26 C 517.62 367.26 513.08 362.72 513.08 357.11 C 513.08 351.51 517.62 346.96 523.23 346.96 C 528.83 346.96 533.38 351.51 533.38 357.11 Z" fill="url(#SVGID_33_)" fill-rule="nonzero" group-id="2,15" node-id="968" stroke="none" target-height="20.299988" target-width="20.300049" target-x="513.079" target-y="346.963"></path><path d="M 532.89 356.42 C 532.89 361.75 528.56 366.07 523.23 366.07 C 517.90 366.07 513.57 361.75 513.57 356.42 C 513.57 351.08 517.90 346.76 523.23 346.76 C 528.56 346.76 532.89 351.08 532.89 356.42 Z" fill="#db6445" fill-rule="nonzero" group-id="2,15" node-id="970" stroke="none" target-height="19.313995" target-width="19.313965" target-x="513.572" target-y="346.758"></path><path d="M 527.11 356.42 C 527.11 358.56 525.37 360.29 523.23 360.29 C 521.09 360.29 519.35 358.56 519.35 356.42 C 519.35 354.27 521.09 352.54 523.23 352.54 C 525.37 352.54 527.11 354.27 527.11 356.42 Z" fill="#ef9786" fill-rule="nonzero" group-id="2,15" node-id="972" stroke="none" target-height="7.753998" target-width="7.7540283" target-x="519.352" target-y="352.538"></path></g></g></svg>